<svg version="1.1" id="Layer_1" xmlns="http://www.w3.org/2000/svg" xmlns:xlink="http://www.w3.org/1999/xlink" x="0px" y="0px"
	 width="100%" viewBox="0 0 500 500" enable-background="new 0 0 500 500" xml:space="preserve">
<path fill="#000000" opacity="1.000000" stroke="none" 
	d="
M62.000000,501.000000 
	C41.671986,501.000000 21.343971,501.000000 1.011968,501.000000 
	C1.007979,334.382263 1.007979,167.764511 1.007979,1.073380 
	C167.574112,1.073380 334.148285,1.073380 500.861206,1.073380 
	C500.861206,167.666580 500.861206,334.333282 500.861206,501.000000 
	C464.918121,501.000000 428.927704,501.000000 392.464600,500.550781 
	C391.650665,496.150848 391.339325,492.197266 390.962341,488.249969 
	C389.959198,477.746613 389.344543,467.183380 387.780731,456.763245 
	C386.437317,447.811798 384.085205,439.156677 378.325745,431.556793 
	C372.341827,423.660706 364.508484,418.598724 356.148926,413.885437 
	C354.463196,412.934937 353.023651,410.912689 352.284119,409.059845 
	C350.997650,405.836853 351.199463,401.730042 349.265289,399.109985 
	C343.590057,391.422394 335.653717,386.787354 325.996948,384.625916 
	C324.870544,384.196747 323.950928,384.056793 323.064575,383.935974 
	C323.097870,383.955078 323.135040,383.887848 323.180298,383.550598 
	C324.439148,382.451935 325.568085,381.474670 326.878754,380.960968 
	C355.038696,369.923553 377.629547,351.798431 395.386749,327.437073 
	C398.712433,322.874542 401.569122,317.990082 408.438599,317.432953 
	C424.385284,316.139618 438.087799,308.892365 449.251740,298.058075 
	C457.715118,289.844604 463.840576,279.749664 467.300751,267.786865 
	C471.804230,252.217072 466.706635,228.487213 452.089386,218.240356 
	C450.943542,217.437149 450.633942,215.440979 449.945801,213.554321 
	C449.962494,201.713913 450.302277,190.306320 449.889435,178.926025 
	C449.399017,165.408478 446.246582,152.371918 441.199036,139.802246 
	C440.132324,137.145813 439.318665,134.387756 437.943909,130.381073 
	C443.757690,134.487213 448.393951,137.761719 453.884247,141.639389 
	C454.384735,138.976105 454.854797,137.320541 454.986389,135.638519 
	C455.889679,124.094994 442.078979,102.181366 428.629486,97.369431 
	C425.642181,96.300652 425.483063,95.038872 425.656982,92.420204 
	C426.025604,86.869148 426.375458,81.260246 425.990021,75.726807 
	C425.010773,61.669048 410.838440,45.574890 397.094940,42.393581 
	C393.649414,41.596024 392.513977,42.605824 393.387726,46.271244 
	C394.800873,52.199600 395.941101,58.203480 396.922668,64.220154 
	C397.471527,67.584595 397.468628,71.039055 397.714355,74.452957 
	C387.112061,64.716873 376.467133,56.148083 363.202637,51.608696 
	C354.166382,48.516293 345.119629,44.851532 335.775299,43.431038 
	C326.308655,41.991951 316.470093,42.940109 306.794708,42.959557 
	C302.309326,42.968571 297.817444,43.145866 293.340576,43.434032 
	C272.007355,44.807182 250.854080,48.457333 229.251236,45.131802 
	C210.053879,42.176559 191.382858,38.417015 173.371826,28.309162 
	C174.841858,33.775692 176.311890,39.242222 178.232605,46.384651 
	C169.223648,44.227253 160.902710,42.950314 153.118530,40.170357 
	C145.245514,37.358669 137.903931,33.058846 129.796021,29.153934 
	C130.507156,49.101818 139.306381,65.296043 150.967178,81.450035 
	C139.501297,84.764137 128.623917,88.776039 116.758965,88.568039 
	C104.990440,88.361740 93.222816,88.104210 80.627754,87.852623 
	C91.633560,106.373657 109.614197,114.310028 128.800644,121.724922 
	C124.621437,125.662376 121.286400,130.123230 116.857841,132.717087 
	C105.805290,139.190704 94.238914,144.784241 82.929199,150.825409 
	C81.648911,151.509277 80.690918,152.796494 79.583473,153.803940 
	C79.760246,154.348785 79.937019,154.893631 80.113792,155.438492 
	C85.950188,157.164780 91.688728,159.592346 97.649940,160.424118 
	C103.859711,161.290573 110.284317,160.617386 116.648857,160.617386 
	C117.523140,168.721085 117.977379,175.474487 119.033440,182.132416 
	C120.675201,192.482819 122.726318,202.768265 124.689331,213.429214 
	C124.158417,215.063507 123.850540,216.687393 122.874092,217.579636 
	C117.748726,222.263138 115.413742,228.276550 113.773376,234.810883 
	C110.742081,246.886017 110.639343,259.137939 113.219673,271.084778 
	C116.486404,286.209625 123.179535,299.817108 136.504044,308.915436 
	C141.057312,312.024567 143.493317,315.108551 144.386612,321.269196 
	C147.491714,342.683807 159.284973,359.581390 176.194702,372.499084 
	C191.495987,384.188080 209.178421,390.891693 228.304733,393.738251 
	C232.587204,394.375610 236.737625,395.900208 240.745789,397.295349 
	C234.930618,399.700073 234.037064,404.682220 232.996704,409.701691 
	C232.636658,411.438751 231.873886,413.392700 230.653870,414.599182 
	C225.368500,419.825714 219.279266,424.337494 214.538681,429.994446 
	C206.861740,439.155365 199.592804,448.727509 192.916992,458.641418 
	C183.576248,472.512848 174.938522,486.857697 166.000000,501.000000 
	C158.312424,501.000000 150.624832,501.000000 142.511383,500.671753 
	C142.565231,498.829803 143.217682,497.346924 143.494492,495.796997 
	C144.650513,489.324280 147.172852,483.051971 144.936462,476.192657 
	C141.287415,465.000458 138.098267,453.658813 134.662552,442.396240 
	C133.994080,440.204926 132.237885,437.998779 132.450119,435.951569 
	C133.045410,430.209015 134.544922,424.567200 135.428665,418.845642 
	C136.354996,412.848541 139.285675,405.804840 137.206329,401.012177 
	C133.951492,393.510254 133.756165,386.671143 133.419022,378.820099 
	C132.767929,363.657471 127.334274,349.207306 120.703346,335.445038 
	C118.926262,331.756775 116.143417,331.334503 113.244354,334.272675 
	C110.161369,337.397278 106.920204,340.482422 104.451576,344.069000 
	C100.835625,349.322540 97.722229,354.938568 94.625046,360.527802 
	C91.723846,365.763367 89.267708,371.069763 90.253334,377.499237 
	C91.002014,382.382996 90.929848,387.416138 90.887634,392.379974 
	C90.877838,393.530548 89.547485,395.625519 88.748795,395.662903 
	C82.228951,395.968231 80.489365,400.982544 78.604950,405.678101 
	C75.302521,413.907043 72.300034,422.255920 69.117737,430.533722 
	C66.231110,438.042358 63.490353,445.522888 69.497429,452.720154 
	C60.617210,460.165497 59.307964,465.003693 62.868782,475.423065 
	C63.210999,476.424438 63.111084,478.271454 62.459110,478.811188 
	C55.490707,484.579987 58.346012,490.749176 61.359745,497.062866 
	C61.909557,498.214691 61.803371,499.679596 62.000000,501.000000 
z"/>
<path fill="#4E9A64" opacity="1.000000" stroke="none" 
	d="
M351.000000,501.000000 
	C337.312439,501.000000 323.624878,501.000000 309.568512,500.667725 
	C316.152893,489.999847 322.681152,479.343658 330.173035,469.414520 
	C338.463837,458.426605 347.636322,448.103973 356.604736,437.377197 
	C356.838806,436.933258 356.892975,436.603668 356.947144,436.274109 
	C356.591492,436.467590 356.235809,436.661072 355.550415,436.946777 
	C353.093445,438.634888 350.878784,440.127533 348.852478,441.842682 
	C330.525879,457.355255 317.870117,477.363617 305.097229,497.265106 
	C304.424622,498.313141 304.351990,499.746216 304.000000,501.000000 
	C274.645782,501.000000 245.291550,501.000000 215.352844,500.565277 
	C215.028900,497.658600 215.091705,495.146759 215.581131,492.720978 
	C219.647141,472.568146 223.791931,452.431213 227.960144,431.923798 
	C230.662109,427.418335 233.316833,423.278534 236.270050,419.281128 
	C239.626068,421.407715 242.827103,423.211212 245.668213,425.467896 
	C246.754974,426.331177 247.864655,428.479218 247.529480,429.620544 
	C243.036942,444.918793 238.237686,460.126648 233.641968,475.395264 
	C232.416748,479.465851 231.813690,483.821381 235.344421,487.051178 
	C236.508514,488.116028 240.019211,488.676239 240.600342,487.960266 
	C243.086823,484.896851 246.421478,481.373444 246.657639,477.831787 
	C247.651474,462.927399 252.532898,449.230835 258.157959,435.709229 
	C260.887665,429.147552 261.168274,429.269897 266.851196,433.693695 
	C267.001190,433.810455 267.419800,433.582062 268.372681,433.362976 
	C267.473572,431.688568 266.599152,430.189453 265.848022,428.630920 
	C264.741455,426.334869 263.796356,423.959167 262.643433,421.687958 
	C261.713837,419.856720 260.760284,416.845703 259.490601,416.665955 
	C257.706940,416.413452 254.921814,417.800659 253.804626,419.369385 
	C251.225403,422.991028 248.856308,422.578430 245.844498,419.827820 
	C243.195511,414.575287 240.999161,409.609680 242.962311,403.938843 
	C242.978271,403.969666 242.911896,403.990112 243.049042,403.875519 
	C243.080429,403.464355 242.974701,403.167786 243.068695,402.592346 
	C248.116913,400.456421 252.853134,397.490112 257.838501,396.985535 
	C266.744568,396.084198 267.199646,397.043671 265.535553,405.920624 
	C264.149506,413.314240 265.803070,420.006653 269.242279,426.501312 
	C270.993378,429.808075 273.132141,430.398071 276.496613,428.816620 
	C284.587402,425.013611 292.791229,421.451080 300.965759,418.101074 
	C300.991791,418.617096 301.001495,418.823517 300.842163,419.319916 
	C300.042236,420.384064 299.225830,421.070679 298.812134,421.947357 
	C296.828247,426.151520 293.928131,428.188873 288.954620,428.589355 
	C284.729553,428.929504 280.293793,430.570679 276.134003,434.705475 
	C282.233032,434.060303 286.884186,433.568268 292.349548,432.990112 
	C290.609528,438.348633 289.103210,442.535889 287.892487,446.806915 
	C285.083557,456.715668 282.539551,466.700806 279.635925,476.580841 
	C278.400604,480.784302 277.557037,484.920105 280.907196,488.240387 
	C282.139984,489.462250 285.956390,490.278351 286.535645,489.577667 
	C289.045685,486.541351 292.333679,482.971497 292.553894,479.422852 
	C293.501434,464.155090 298.799896,450.259399 304.330292,436.338593 
	C305.639740,433.042511 307.834259,431.581238 311.346924,430.965210 
	C323.563965,428.822571 335.276306,425.202881 345.682159,418.094025 
	C346.737671,417.372925 348.866913,416.835541 349.702209,417.396851 
	C357.235687,422.459229 364.591461,427.786011 371.987488,433.449768 
	C368.764343,447.399384 366.129822,461.107330 362.142883,474.409973 
	C359.399261,483.564209 354.780579,492.156525 351.000000,501.000000 
z"/>
<path fill="#502812" opacity="1.000000" stroke="none" 
	d="
M62.444160,501.000000 
	C61.803371,499.679596 61.909557,498.214691 61.359745,497.062866 
	C58.346012,490.749176 55.490707,484.579987 62.459110,478.811188 
	C63.111084,478.271454 63.210999,476.424438 62.868782,475.423065 
	C59.307964,465.003693 60.617210,460.165497 69.497429,452.720154 
	C63.490353,445.522888 66.231110,438.042358 69.117737,430.533722 
	C72.300034,422.255920 75.302521,413.907043 78.604950,405.678101 
	C80.489365,400.982544 82.228951,395.968231 88.748795,395.662903 
	C89.547485,395.625519 90.877838,393.530548 90.887634,392.379974 
	C90.929848,387.416138 91.002014,382.382996 90.253334,377.499237 
	C89.267708,371.069763 91.723846,365.763367 94.625046,360.527802 
	C97.722229,354.938568 100.835625,349.322540 104.451576,344.069000 
	C106.920204,340.482422 110.161369,337.397278 113.244354,334.272675 
	C116.143417,331.334503 118.926262,331.756775 120.703346,335.445038 
	C127.334274,349.207306 132.767929,363.657471 133.419022,378.820099 
	C133.756165,386.671143 133.951492,393.510254 137.206329,401.012177 
	C139.285675,405.804840 136.354996,412.848541 135.428665,418.845642 
	C134.544922,424.567200 133.045410,430.209015 132.450119,435.951569 
	C132.237885,437.998779 133.994080,440.204926 134.662552,442.396240 
	C138.098267,453.658813 141.287415,465.000458 144.936462,476.192657 
	C147.172852,483.051971 144.650513,489.324280 143.494492,495.796997 
	C143.217682,497.346924 142.565231,498.829803 142.042755,500.671753 
	C139.958328,501.000000 137.916672,501.000000 135.509888,500.621979 
	C136.294540,496.248230 137.817200,492.313721 138.485641,488.239044 
	C139.111893,484.421570 139.739655,480.217102 138.786743,476.599060 
	C135.696350,464.865295 131.893234,453.318726 128.323486,441.712708 
	C127.985504,440.613800 127.461945,439.539001 126.848846,438.563416 
	C124.258057,434.440948 121.277618,433.921082 117.997963,437.507294 
	C116.280975,439.384735 114.945335,441.938599 114.305069,444.411591 
	C112.396767,451.782440 113.725296,458.855835 116.814873,465.779236 
	C117.717949,467.802948 117.633720,470.380646 117.578857,472.694366 
	C117.470718,477.254456 115.448860,482.582977 117.172043,486.177917 
	C119.625694,491.296783 119.317413,495.961395 119.000000,501.000000 
	C117.285645,501.000000 115.571281,501.000000 113.481140,500.591797 
	C114.196808,495.744598 114.500961,491.470306 112.041298,487.209076 
	C111.117363,485.608398 110.940521,483.329651 111.090324,481.412140 
	C111.333389,478.300964 112.234665,475.246338 112.624512,472.138519 
	C112.749619,471.141174 112.409454,469.811432 111.769691,469.085175 
	C111.317520,468.571838 109.494217,468.396881 109.160469,468.799042 
	C107.713196,470.543030 105.239128,471.927979 107.489960,475.054413 
	C110.978294,479.899597 111.775749,485.808716 108.005630,490.332031 
	C104.937103,494.013550 104.264214,496.978943 106.000000,501.000000 
	C104.285645,501.000000 102.571281,501.000000 100.386871,500.653137 
	C96.717621,498.532013 93.683212,495.743622 90.285446,495.191589 
	C82.870293,493.986786 75.954926,496.231384 70.000000,501.000000 
	C67.629440,501.000000 65.258888,501.000000 62.444160,501.000000 
M126.057602,378.733093 
	C126.289787,378.343597 126.521973,377.954071 126.476326,376.915161 
	C119.417503,369.339478 107.917061,367.310272 99.208565,372.329895 
	C98.131691,372.950623 97.746086,374.770599 96.831429,376.016052 
	C96.831429,376.016052 96.796295,376.291840 96.796295,376.291840 
	C96.796295,376.291840 96.976059,375.967499 97.734619,375.983246 
	C107.482010,371.624237 116.865219,371.604706 126.057602,378.733093 
M96.132843,447.282562 
	C100.339676,450.770813 104.546501,454.259064 109.029312,457.976166 
	C109.029312,456.992126 109.103889,456.172974 109.017921,455.371033 
	C108.033249,446.185974 109.256577,437.794189 117.003609,431.472412 
	C118.031281,430.633789 118.694336,428.985596 118.939598,427.607910 
	C121.037476,415.823273 123.097366,404.030029 124.971779,392.208130 
	C126.436394,382.970795 124.433838,379.815430 115.160339,377.676971 
	C111.902847,376.925812 108.183350,377.173035 104.867928,377.875671 
	C96.527588,379.643188 92.095703,391.188599 97.465080,397.838226 
	C105.515152,407.807739 104.930931,418.302521 99.476486,428.584351 
	C96.323853,434.527252 95.702599,440.401459 96.132843,447.282562 
M90.146454,433.401245 
	C91.692238,431.041138 93.430389,428.782806 94.744049,426.299927 
	C97.540359,421.014801 99.178955,415.230927 97.195335,409.495392 
	C96.198151,406.612030 93.560204,403.233307 90.870361,402.249756 
	C86.936127,400.811218 85.280563,404.970306 84.098137,408.023834 
	C80.318474,417.784576 76.861946,427.670410 73.084579,437.432098 
	C71.380402,441.836121 72.331375,445.465210 75.352737,449.051636 
	C77.235687,448.441223 79.090652,447.790009 80.975227,447.240265 
	C84.005486,446.356354 88.571983,446.430969 89.722214,444.474091 
	C91.242371,441.887878 90.092659,437.732300 90.146454,433.401245 
M78.773064,490.024475 
	C84.513596,490.070435 90.460892,489.209106 95.927979,490.454987 
	C100.153564,491.417908 102.335518,489.656311 103.608696,487.111237 
	C104.649361,485.030945 104.744942,481.205811 103.460670,479.546539 
	C101.735611,477.317749 98.430313,475.693726 95.538475,475.099762 
	C86.057823,473.152527 77.359612,475.950226 69.547050,481.217529 
	C63.080208,485.577515 63.031773,488.204498 68.301361,494.184479 
	C71.539009,492.848419 74.750931,491.522949 78.773064,490.024475 
M70.438210,460.036865 
	C65.552284,465.705841 65.468956,468.290100 70.017029,473.099487 
	C83.829124,468.217438 89.396118,467.530518 97.577957,469.119293 
	C99.178764,469.430115 101.948372,469.153229 102.510643,468.181793 
	C103.497131,466.477478 104.007347,463.691559 103.289276,461.946136 
	C100.193604,454.421570 92.960426,450.507965 85.074181,452.716492 
	C80.126472,454.102142 75.658546,457.200958 70.438210,460.036865 
M116.513275,365.705475 
	C119.104652,366.447083 121.696022,367.188690 125.445786,368.261810 
	C123.539871,361.692139 122.259590,356.236908 120.337761,351.017944 
	C119.039658,347.492798 111.894730,346.310364 109.646973,349.331207 
	C105.744522,354.575897 102.458519,360.279236 99.127373,365.458527 
	C104.973137,365.458527 110.335480,365.458527 116.513275,365.705475 
M125.093750,429.918945 
	C126.052124,429.105621 127.684647,428.417419 127.862457,427.459259 
	C129.310043,419.658417 130.533218,411.814117 131.690781,403.963287 
	C131.857864,402.830170 131.311493,401.591827 131.095291,400.402191 
	C130.693176,400.400177 130.291061,400.398193 129.888931,400.396210 
	C128.271072,409.969086 126.653198,419.541992 125.093750,429.918945 
M109.475159,460.573029 
	C109.475159,460.573029 109.412216,460.460358 109.475159,460.573029 
z"/>
<path fill="#502B14" opacity="1.000000" stroke="none" 
	d="
M371.999359,433.035248 
	C364.591461,427.786011 357.235687,422.459229 349.702209,417.396851 
	C348.866913,416.835541 346.737671,417.372925 345.682159,418.094025 
	C335.276306,425.202881 323.563965,428.822571 311.346924,430.965210 
	C307.834259,431.581238 305.639740,433.042511 304.330292,436.338593 
	C298.799896,450.259399 293.501434,464.155090 292.553894,479.422852 
	C292.333679,482.971497 289.045685,486.541351 286.535645,489.577667 
	C285.956390,490.278351 282.139984,489.462250 280.907196,488.240387 
	C277.557037,484.920105 278.400604,480.784302 279.635925,476.580841 
	C282.539551,466.700806 285.083557,456.715668 287.892487,446.806915 
	C289.103210,442.535889 290.609528,438.348633 292.349548,432.990112 
	C286.884186,433.568268 282.233032,434.060303 276.134003,434.705475 
	C280.293793,430.570679 284.729553,428.929504 288.954620,428.589355 
	C293.928131,428.188873 296.828247,426.151520 298.812134,421.947357 
	C299.225830,421.070679 300.042236,420.384064 301.190613,419.170288 
	C309.665955,415.772644 307.150543,423.507751 309.732086,426.655701 
	C320.379791,424.698273 330.882782,421.735016 340.359192,415.916260 
	C348.939819,410.647583 349.512390,402.916626 341.105042,397.312958 
	C335.306793,393.448334 328.445282,391.178925 321.419495,387.897980 
	C320.869812,393.529083 319.111267,397.895081 325.938416,401.178833 
	C324.599396,402.882507 322.700592,403.636475 321.011169,404.717682 
	C314.288483,409.020172 307.631042,413.424713 300.949432,417.791504 
	C292.791229,421.451080 284.587402,425.013611 276.496613,428.816620 
	C273.132141,430.398071 270.993378,429.808075 269.242279,426.501312 
	C265.803070,420.006653 264.149506,413.314240 265.535553,405.920624 
	C267.199646,397.043671 266.744568,396.084198 257.838501,396.985535 
	C252.853134,397.490112 248.116913,400.456421 242.913055,402.878693 
	C242.675751,403.625946 242.793823,403.808014 242.911896,403.990112 
	C242.911896,403.990112 242.978271,403.969666 242.605469,403.818695 
	C234.974533,408.968140 234.840240,414.296661 241.922211,418.523102 
	C243.160385,419.261993 244.618912,419.631683 245.975677,420.171875 
	C248.856308,422.578430 251.225403,422.991028 253.804626,419.369385 
	C254.921814,417.800659 257.706940,416.413452 259.490601,416.665955 
	C260.760284,416.845703 261.713837,419.856720 262.643433,421.687958 
	C263.796356,423.959167 264.741455,426.334869 265.848022,428.630920 
	C266.599152,430.189453 267.473572,431.688568 268.372681,433.362976 
	C267.419800,433.582062 267.001190,433.810455 266.851196,433.693695 
	C261.168274,429.269897 260.887665,429.147552 258.157959,435.709229 
	C252.532898,449.230835 247.651474,462.927399 246.657639,477.831787 
	C246.421478,481.373444 243.086823,484.896851 240.600342,487.960266 
	C240.019211,488.676239 236.508514,488.116028 235.344421,487.051178 
	C231.813690,483.821381 232.416748,479.465851 233.641968,475.395264 
	C238.237686,460.126648 243.036942,444.918793 247.529480,429.620544 
	C247.864655,428.479218 246.754974,426.331177 245.668213,425.467896 
	C242.827103,423.211212 239.626068,421.407715 235.923752,419.198639 
	C230.595261,422.880066 225.415222,426.328094 221.312759,430.771118 
	C202.394928,451.259277 187.750427,474.812408 173.578308,498.669128 
	C173.186859,499.328064 173.184036,500.217865 173.000000,501.000000 
	C170.958328,501.000000 168.916672,501.000000 166.437500,501.000000 
	C174.938522,486.857697 183.576248,472.512848 192.916992,458.641418 
	C199.592804,448.727509 206.861740,439.155365 214.538681,429.994446 
	C219.279266,424.337494 225.368500,419.825714 230.653870,414.599182 
	C231.873886,413.392700 232.636658,411.438751 232.996704,409.701691 
	C234.037064,404.682220 234.930618,399.700073 241.075378,397.232666 
	C242.014328,395.688232 242.858078,394.431946 242.719177,393.295837 
	C242.534256,391.783356 241.584381,390.364441 240.950623,388.518036 
	C240.508148,386.194519 239.755676,384.258759 239.753036,382.321960 
	C239.751007,380.843933 240.699066,379.364594 241.224487,377.885834 
	C242.350723,379.016693 243.847946,379.966461 244.510483,381.323700 
	C245.361694,383.067444 245.306747,385.242889 246.098373,387.030304 
	C246.595795,388.153442 247.897964,389.658386 248.894226,389.700958 
	C254.776459,389.952118 260.674866,389.824677 267.525818,389.824677 
	C266.016693,386.910431 264.783234,385.134735 264.196899,383.166290 
	C263.851501,382.006744 264.532745,380.541351 264.752289,379.213562 
	C266.071991,379.804352 267.824493,380.049622 268.626343,381.053894 
	C270.645294,383.582520 272.235474,386.453583 273.998291,389.611267 
	C274.000031,391.734467 274.000977,393.433716 273.662750,395.335693 
	C272.718750,397.408386 272.077301,399.267578 271.519379,401.151489 
	C270.949768,403.074921 270.462158,405.022705 269.628601,407.209961 
	C269.441559,414.014008 269.324066,420.631836 274.143280,426.282196 
	C286.285919,419.743500 298.187469,413.268372 310.159271,406.925873 
	C314.049316,404.864929 315.731659,401.968658 314.805298,397.259521 
	C314.944397,393.255981 315.004333,389.619415 315.306000,385.746246 
	C317.377197,381.695831 320.549103,384.162537 323.135040,383.887848 
	C323.135040,383.887848 323.097870,383.955078 323.313293,384.175659 
	C324.420380,384.569214 325.312012,384.742188 326.203674,384.915131 
	C335.653717,386.787354 343.590057,391.422394 349.265289,399.109985 
	C351.199463,401.730042 350.997650,405.836853 352.284119,409.059845 
	C353.023651,410.912689 354.463196,412.934937 356.148926,413.885437 
	C364.508484,418.598724 372.341827,423.660706 378.325745,431.556793 
	C384.085205,439.156677 386.437317,447.811798 387.780731,456.763245 
	C389.344543,467.183380 389.959198,477.746613 390.962341,488.249969 
	C391.339325,492.197266 391.650665,496.150848 391.995972,500.550781 
	C389.958344,501.000000 387.916656,501.000000 385.466370,500.532349 
	C384.896729,482.451904 384.545288,464.801331 379.779724,447.726288 
	C378.324371,442.511658 374.654877,437.914948 371.999359,433.035248 
M299.629120,438.229553 
	C301.431580,433.021332 306.212982,428.645996 303.868347,422.136902 
	C301.602325,424.960754 299.298859,427.848389 298.184052,431.138763 
	C293.610138,444.638855 289.409698,458.265289 285.044434,471.836456 
	C284.039398,474.960999 282.432190,477.991577 282.050842,481.178925 
	C281.828583,483.036469 283.489227,485.119263 284.302643,487.100677 
	C285.888855,485.446014 287.976440,484.028442 288.905792,482.063171 
	C289.677063,480.432251 289.069000,478.156128 289.101288,476.166321 
	C289.125183,474.696045 288.889618,473.135376 289.294983,471.771088 
	C292.555389,460.798096 295.940460,449.862152 299.629120,438.229553 
M246.387329,458.993530 
	C250.152939,448.886810 253.988007,438.805084 257.633881,428.655334 
	C258.512848,426.208405 258.765503,423.536499 259.306152,420.968079 
	C258.705109,420.754974 258.104034,420.541870 257.502960,420.328766 
	C255.739639,423.381256 253.417480,426.244812 252.310593,429.519196 
	C247.737778,443.046783 243.540802,456.701233 239.187592,470.303284 
	C238.136185,473.588501 236.572006,476.791748 236.118820,480.150757 
	C235.900879,481.766327 237.719360,483.656677 238.615662,485.422577 
	C240.019104,484.186920 241.563187,483.071167 242.764191,481.662872 
	C243.329865,480.999634 243.290283,479.782166 243.433075,478.802429 
	C244.356628,472.465332 245.254807,466.124512 246.387329,458.993530 
z"/>
<path fill="#34864F" opacity="1.000000" stroke="none" 
	d="
M371.987488,433.449768 
	C374.654877,437.914948 378.324371,442.511658 379.779724,447.726288 
	C384.545288,464.801331 384.896729,482.451904 385.028870,500.532349 
	C373.979095,501.000000 362.958221,501.000000 351.468628,501.000000 
	C354.780579,492.156525 359.399261,483.564209 362.142883,474.409973 
	C366.129822,461.107330 368.764343,447.399384 371.987488,433.449768 
z"/>
<path fill="#FBD2AC" opacity="1.000000" stroke="none" 
	d="
M119.466858,501.000000 
	C119.317413,495.961395 119.625694,491.296783 117.172043,486.177917 
	C115.448860,482.582977 117.470718,477.254456 117.578857,472.694366 
	C117.633720,470.380646 117.717949,467.802948 116.814873,465.779236 
	C113.725296,458.855835 112.396767,451.782440 114.305069,444.411591 
	C114.945335,441.938599 116.280975,439.384735 117.997963,437.507294 
	C121.277618,433.921082 124.258057,434.440948 126.848846,438.563416 
	C127.461945,439.539001 127.985504,440.613800 128.323486,441.712708 
	C131.893234,453.318726 135.696350,464.865295 138.786743,476.599060 
	C139.739655,480.217102 139.111893,484.421570 138.485641,488.239044 
	C137.817200,492.313721 136.294540,496.248230 135.072388,500.621979 
	C129.977905,501.000000 124.955818,501.000000 119.466858,501.000000 
z"/>
<path fill="#4E9A64" opacity="1.000000" stroke="none" 
	d="
M210.000000,501.000000 
	C200.312439,501.000000 190.624878,501.000000 180.474426,500.627502 
	C180.726059,498.596008 181.195816,496.770721 182.192474,495.303345 
	C193.674500,478.399261 205.167618,461.501526 216.843323,444.731293 
	C218.838730,441.865234 221.705246,439.605621 224.126068,437.437134 
	C223.316254,439.819427 222.562302,441.835266 221.781082,443.840546 
	C214.617905,462.227081 211.841141,481.516968 210.000000,501.000000 
z"/>
<path fill="#62BA7A" opacity="1.000000" stroke="none" 
	d="
M224.169312,437.065826 
	C221.705246,439.605621 218.838730,441.865234 216.843323,444.731293 
	C205.167618,461.501526 193.674500,478.399261 182.192474,495.303345 
	C181.195816,496.770721 180.726059,498.596008 180.005768,500.627502 
	C177.958328,501.000000 175.916672,501.000000 173.437500,501.000000 
	C173.184036,500.217865 173.186859,499.328064 173.578308,498.669128 
	C187.750427,474.812408 202.394928,451.259277 221.312759,430.771118 
	C225.415222,426.328094 230.595261,422.880066 235.625275,419.056244 
	C233.316833,423.278534 230.662109,427.418335 227.678177,432.035461 
	C226.289093,434.030487 225.229202,435.548157 224.169312,437.065826 
z"/>
<path fill="#4C2911" opacity="1.000000" stroke="none" 
	d="
M304.416687,501.000000 
	C304.351990,499.746216 304.424622,498.313141 305.097229,497.265106 
	C317.870117,477.363617 330.525879,457.355255 348.852478,441.842682 
	C350.878784,440.127533 353.093445,438.634888 355.684601,437.107788 
	C356.148468,437.176544 356.424866,437.491638 356.424866,437.491638 
	C347.636322,448.103973 338.463837,458.426605 330.173035,469.414520 
	C322.681152,479.343658 316.152893,489.999847 309.099854,500.667725 
	C307.611115,501.000000 306.222198,501.000000 304.416687,501.000000 
z"/>
<path fill="#4C2A12" opacity="1.000000" stroke="none" 
	d="
M224.126083,437.437134 
	C225.229202,435.548157 226.289093,434.030487 227.630951,432.401123 
	C223.791931,452.431213 219.647141,472.568146 215.581131,492.720978 
	C215.091705,495.146759 215.028900,497.658600 214.884186,500.565277 
	C213.611115,501.000000 212.222214,501.000000 210.416656,501.000000 
	C211.841141,481.516968 214.617905,462.227081 221.781082,443.840546 
	C222.562302,441.835266 223.316254,439.819427 224.126083,437.437134 
z"/>
<path fill="#4F4550" opacity="1.000000" stroke="none" 
	d="
M106.437500,501.000000 
	C104.264214,496.978943 104.937103,494.013550 108.005630,490.332031 
	C111.775749,485.808716 110.978294,479.899597 107.489960,475.054413 
	C105.239128,471.927979 107.713196,470.543030 109.160469,468.799042 
	C109.494217,468.396881 111.317520,468.571838 111.769691,469.085175 
	C112.409454,469.811432 112.749619,471.141174 112.624512,472.138519 
	C112.234665,475.246338 111.333389,478.300964 111.090324,481.412140 
	C110.940521,483.329651 111.117363,485.608398 112.041298,487.209076 
	C114.500961,491.470306 114.196808,495.744598 113.052673,500.591797 
	C110.958336,501.000000 108.916664,501.000000 106.437500,501.000000 
z"/>
<path fill="#F9D0AA" opacity="1.000000" stroke="none" 
	d="
M70.468658,501.000000 
	C75.954926,496.231384 82.870293,493.986786 90.285446,495.191589 
	C93.683212,495.743622 96.717621,498.532013 99.958405,500.653137 
	C90.312439,501.000000 80.624878,501.000000 70.468658,501.000000 
z"/>
<path fill="#4C2B18" opacity="1.000000" stroke="none" 
	d="
M240.963120,388.905334 
	C241.584381,390.364441 242.534256,391.783356 242.719177,393.295837 
	C242.858078,394.431946 242.014328,395.688232 241.278442,396.953674 
	C236.737625,395.900208 232.587204,394.375610 228.304733,393.738251 
	C209.178421,390.891693 191.495987,384.188080 176.194702,372.499084 
	C159.284973,359.581390 147.491714,342.683807 144.386612,321.269196 
	C143.493317,315.108551 141.057312,312.024567 136.504044,308.915436 
	C123.179535,299.817108 116.486404,286.209625 113.219673,271.084778 
	C110.639343,259.137939 110.742081,246.886017 113.773376,234.810883 
	C115.413742,228.276550 117.748726,222.263138 122.874092,217.579636 
	C123.850540,216.687393 124.158417,215.063507 125.073776,213.398102 
	C125.627197,212.997375 125.881592,212.975708 126.498001,212.934402 
	C130.441071,211.671417 133.967651,209.636917 137.617035,209.385574 
	C142.151031,209.073303 143.145584,207.308548 142.978989,203.218262 
	C142.252838,185.389328 146.127274,168.425125 154.140350,152.595642 
	C157.934753,145.099960 161.811142,136.767838 167.965698,131.540878 
	C178.441895,122.643639 191.024475,116.485870 204.573242,112.855217 
	C225.030334,107.373329 245.745148,105.808136 266.838318,107.858070 
	C292.414215,110.343658 316.696198,117.450111 340.395264,127.078705 
	C345.943817,129.333008 348.738007,132.948456 349.968903,138.600876 
	C352.444794,149.970200 355.123810,161.301071 358.067169,172.556747 
	C358.518433,174.282379 360.743256,176.695465 362.287872,176.804382 
	C376.371704,177.797409 390.482269,178.466476 404.594025,178.986389 
	C412.595306,179.281174 412.865295,179.587646 414.079163,187.669159 
	C415.274414,195.626694 417.055573,203.496201 418.507843,211.031769 
	C424.582611,211.031769 430.183746,210.812119 435.756073,211.118103 
	C438.859406,211.288513 441.914703,212.334076 445.157959,213.254059 
	C446.861420,213.681671 448.398560,213.840454 449.935699,213.999237 
	C450.633942,215.440979 450.943542,217.437149 452.089386,218.240356 
	C466.706635,228.487213 471.804230,252.217072 467.300751,267.786865 
	C463.840576,279.749664 457.715118,289.844604 449.251740,298.058075 
	C438.087799,308.892365 424.385284,316.139618 408.438599,317.432953 
	C401.569122,317.990082 398.712433,322.874542 395.386749,327.437073 
	C377.629547,351.798431 355.038696,369.923553 326.878754,380.960968 
	C325.568085,381.474670 324.439148,382.451935 323.180298,383.550598 
	C320.549103,384.162537 317.377197,381.695831 314.934875,385.535156 
	C313.230042,385.847412 312.143677,386.158112 311.045135,386.417053 
	C298.698486,389.326965 286.349976,392.228912 274.001953,395.132996 
	C274.000977,393.433716 274.000031,391.734467 274.379700,389.481689 
	C280.591614,387.787964 286.422943,386.647766 292.829346,385.395142 
	C291.452179,382.826813 290.207336,381.046906 289.562897,379.071106 
	C289.248688,378.107910 290.054565,376.779327 290.353455,375.616150 
	C291.487823,375.921082 292.994446,375.878357 293.674957,376.607086 
	C294.894989,377.913574 295.479248,379.793030 296.599457,381.220978 
	C297.306000,382.121613 298.722900,383.407867 299.445801,383.202148 
	C304.760406,381.689758 309.980316,379.844452 315.657623,377.962311 
	C313.943909,375.518433 312.533325,374.006989 311.760406,372.219788 
	C311.285217,371.121033 311.785004,369.600647 311.847015,368.269592 
	C313.144897,368.610107 314.853699,368.549316 315.657562,369.372375 
	C317.491547,371.250214 318.882202,373.561066 320.656616,375.972809 
	C325.617584,373.754486 330.406403,371.613159 335.825623,369.189972 
	C333.824188,366.962830 332.055237,365.419678 330.869293,363.513763 
	C330.167511,362.385925 330.387054,360.684784 330.192322,359.241455 
	C331.628754,359.521576 333.446350,359.349274 334.424591,360.173340 
	C336.657257,362.054230 338.478943,364.423035 340.649414,366.792145 
	C345.322449,363.848663 349.593964,361.158112 354.187195,358.264862 
	C352.262329,356.082123 350.573792,354.631531 349.516754,352.813690 
	C348.747406,351.490723 348.812042,349.682800 348.504852,348.091125 
	C350.046814,348.511780 351.908813,348.529144 353.059723,349.442474 
	C355.055725,351.026550 356.611694,353.165070 358.461884,355.191223 
	C373.325684,343.722717 385.217407,330.365540 395.402893,315.368988 
	C396.478241,313.785706 398.804626,312.226868 400.639221,312.115448 
	C414.913208,311.248474 427.758362,306.490845 438.876160,297.721497 
	C454.366913,285.502960 463.765625,270.035736 461.969055,249.444565 
	C460.554047,233.226807 450.272614,220.642532 436.328156,218.254272 
	C423.425598,216.044449 411.864563,219.058258 402.082031,228.044952 
	C400.802582,229.220291 399.461365,230.328384 398.148743,231.467621 
	C397.640564,231.064545 397.132416,230.661453 396.624237,230.258362 
	C399.205231,226.506256 401.786255,222.754150 404.972137,218.122696 
	C400.090729,218.122696 395.799286,218.346039 391.542206,218.059265 
	C387.363495,217.777771 382.694275,218.976700 378.416473,214.494781 
	C389.426636,211.528015 399.651642,214.747620 409.974548,213.967178 
	C409.974548,212.436142 409.974548,211.039047 409.974548,208.389191 
	C401.775696,208.389191 393.819794,208.497025 385.868713,208.348114 
	C381.212128,208.260925 376.543701,207.919312 371.925385,207.336838 
	C370.848938,207.201080 369.954590,205.621170 368.976471,204.705719 
	C370.038025,204.075699 371.075256,202.957397 372.165497,202.903107 
	C376.153107,202.704529 380.162018,202.760300 384.156281,202.903580 
	C392.441711,203.200806 400.722870,203.615372 408.926300,203.978180 
	C409.951935,199.926407 408.295105,198.960632 404.893555,198.842682 
	C392.740112,198.421310 380.589233,197.845398 368.455200,197.054642 
	C366.984711,196.958801 365.622772,195.197861 364.210541,194.208633 
	C365.674011,193.462372 367.136200,192.081314 368.601166,192.078339 
	C375.427704,192.064407 382.253510,192.510544 389.082489,192.638412 
	C395.125000,192.751556 401.171295,192.662109 407.160614,192.662109 
	C407.609680,187.538895 405.323914,186.028824 400.453217,185.902298 
	C386.968201,185.552002 373.503754,184.378448 360.018829,184.072647 
	C355.041779,183.959778 352.930511,182.178513 351.899628,177.474380 
	C349.085907,164.634705 346.027710,151.843262 342.721893,139.122223 
	C342.189575,137.073837 340.256073,134.612411 338.352417,133.812714 
	C303.004333,118.963280 266.550751,110.252594 227.867432,115.125496 
	C209.473343,117.442574 192.027451,122.489891 176.731781,134.051682 
	C176.268997,134.405777 176.089737,134.710876 175.970444,134.934967 
	C176.030426,134.853958 175.870636,134.731018 175.538254,134.830688 
	C173.532791,136.517029 171.548523,137.881683 170.234039,139.724167 
	C154.447174,161.852478 147.310547,186.690277 149.909943,213.597580 
	C151.773941,232.892548 155.975876,251.955551 158.836060,271.166504 
	C159.311707,274.361206 158.646713,277.882477 157.836166,281.082458 
	C155.444168,290.525848 151.129929,299.764801 150.414413,309.297424 
	C148.267258,337.903625 171.664627,364.332672 194.190231,375.571106 
	C194.836212,375.893402 195.969330,375.239380 196.937759,374.615662 
	C196.994019,373.524658 196.746735,372.725647 197.026901,372.217438 
	C197.860840,370.704773 198.902084,369.306366 199.862320,367.863312 
	C200.835495,369.151489 202.070908,370.325195 202.698776,371.764069 
	C203.200439,372.913757 202.771622,374.435760 203.100754,375.702911 
	C203.524353,377.333801 203.894135,379.837952 204.981476,380.287903 
	C209.598328,382.198364 214.472031,383.488098 219.763840,385.166962 
	C219.544006,382.652618 219.084244,381.110168 219.370804,379.721741 
	C219.721054,378.024902 220.697372,376.457306 221.402969,374.833801 
	C222.373627,376.254761 223.970276,377.578339 224.209045,379.113159 
	C225.386703,386.683228 225.256973,386.721649 233.048157,387.899750 
	C235.677063,388.297241 238.324280,388.573608 240.963120,388.905334 
M145.722595,294.631409 
	C148.035492,289.182312 148.744095,283.802979 147.057007,277.834381 
	C146.017334,274.156250 145.873962,269.658844 146.998856,266.049988 
	C149.519669,257.962616 147.554245,250.365479 146.240616,242.561844 
	C145.525879,238.315948 142.710724,235.574112 139.166351,235.304016 
	C136.684814,235.114914 133.760559,237.561600 131.462494,239.374313 
	C130.163910,240.398651 129.901947,242.644882 128.844574,244.102417 
	C128.225494,244.955780 126.960419,245.340500 125.932106,245.140121 
	C126.798576,239.448242 128.227737,233.658340 133.302643,230.546417 
	C136.064957,228.852600 140.158554,229.329865 144.113571,228.761551 
	C143.800735,225.569794 143.401367,221.495132 143.012131,217.523865 
	C134.002655,216.342148 127.498421,220.121368 123.038589,228.809967 
	C112.020050,250.276154 117.742584,281.740479 135.952545,299.424438 
	C138.156952,301.565186 140.662018,303.396362 143.603134,305.851257 
	C144.237701,301.642487 144.725021,298.410400 145.722595,294.631409 
M150.027802,272.420929 
	C150.336914,274.487122 150.646011,276.553314 151.029922,279.119507 
	C155.065704,274.631256 152.326599,271.107452 150.409332,267.434479 
	C150.280991,268.817413 150.152649,270.200348 150.027802,272.420929 
z"/>
<path fill="#4E2611" opacity="1.000000" stroke="none" 
	d="
M449.945801,213.554321 
	C448.398560,213.840454 446.861420,213.681671 445.161652,212.818848 
	C444.354370,204.501755 443.350708,196.898788 443.137207,189.273682 
	C442.638306,171.455429 439.910461,154.131454 432.450134,137.825851 
	C429.926117,132.309235 426.643524,127.139694 423.171112,120.837952 
	C427.359009,120.837952 431.172974,120.153946 434.596466,121.017677 
	C438.537781,122.012047 442.133942,124.374428 445.957916,126.234100 
	C446.035828,126.325539 446.400635,126.267380 446.400635,126.267380 
	C446.400635,126.267380 446.111176,125.906845 446.079895,125.540909 
	C441.082062,113.559929 433.989746,104.203384 420.963684,100.778358 
	C419.724152,100.452431 418.367035,98.419785 418.122375,96.997505 
	C417.801239,95.130608 418.344330,93.034721 418.839447,91.121071 
	C421.552673,80.634453 419.594360,70.820343 413.777863,62.011677 
	C410.909058,57.667103 406.643036,54.245148 403.009247,50.405708 
	C402.264160,50.751835 401.519073,51.097961 400.773987,51.444088 
	C403.437561,64.789108 403.699249,78.107567 401.733032,91.640907 
	C399.845917,90.638756 398.479645,89.537148 397.551086,88.143814 
	C384.661316,68.802139 366.296448,57.288807 343.967285,52.762638 
	C332.401031,50.418129 320.300201,50.193298 308.426208,50.020760 
	C294.804382,49.822823 280.982422,49.499569 267.579926,51.480469 
	C249.133591,54.206848 231.178009,53.272346 213.221390,49.227680 
	C204.681671,47.304134 196.267075,44.825161 187.363724,42.484192 
	C187.668793,43.577667 187.877426,44.325447 188.180634,45.395126 
	C189.923141,47.147709 191.571045,48.578388 193.859726,50.565399 
	C173.950684,55.052597 156.515320,50.612560 138.414398,42.297043 
	C143.831238,58.115276 150.774155,71.614952 162.171021,83.292702 
	C141.627884,95.341255 119.885155,97.019142 96.310387,95.800171 
	C109.908440,107.484825 124.641518,113.128433 141.129456,116.900917 
	C130.063614,133.462967 115.919609,144.755981 98.873383,153.432587 
	C106.888351,153.432587 114.903320,153.432587 122.733704,153.432587 
	C123.960114,165.204025 125.129173,176.424973 126.334305,188.056686 
	C126.292259,196.629639 126.214127,204.791855 126.135994,212.954056 
	C125.881592,212.975708 125.627197,212.997375 124.988358,213.050140 
	C122.726318,202.768265 120.675201,192.482819 119.033440,182.132416 
	C117.977379,175.474487 117.523140,168.721085 116.648857,160.617386 
	C110.284317,160.617386 103.859711,161.290573 97.649940,160.424118 
	C91.688728,159.592346 85.950188,157.164780 80.113792,155.438492 
	C79.937019,154.893631 79.760246,154.348785 79.583473,153.803940 
	C80.690918,152.796494 81.648911,151.509277 82.929199,150.825409 
	C94.238914,144.784241 105.805290,139.190704 116.857841,132.717087 
	C121.286400,130.123230 124.621437,125.662376 128.800644,121.724922 
	C109.614197,114.310028 91.633560,106.373657 80.627754,87.852623 
	C93.222816,88.104210 104.990440,88.361740 116.758965,88.568039 
	C128.623917,88.776039 139.501297,84.764137 150.967178,81.450035 
	C139.306381,65.296043 130.507156,49.101818 129.796021,29.153934 
	C137.903931,33.058846 145.245514,37.358669 153.118530,40.170357 
	C160.902710,42.950314 169.223648,44.227253 178.232605,46.384651 
	C176.311890,39.242222 174.841858,33.775692 173.371826,28.309162 
	C191.382858,38.417015 210.053879,42.176559 229.251236,45.131802 
	C250.854080,48.457333 272.007355,44.807182 293.340576,43.434032 
	C297.817444,43.145866 302.309326,42.968571 306.794708,42.959557 
	C316.470093,42.940109 326.308655,41.991951 335.775299,43.431038 
	C345.119629,44.851532 354.166382,48.516293 363.202637,51.608696 
	C376.467133,56.148083 387.112061,64.716873 397.714355,74.452957 
	C397.468628,71.039055 397.471527,67.584595 396.922668,64.220154 
	C395.941101,58.203480 394.800873,52.199600 393.387726,46.271244 
	C392.513977,42.605824 393.649414,41.596024 397.094940,42.393581 
	C410.838440,45.574890 425.010773,61.669048 425.990021,75.726807 
	C426.375458,81.260246 426.025604,86.869148 425.656982,92.420204 
	C425.483063,95.038872 425.642181,96.300652 428.629486,97.369431 
	C442.078979,102.181366 455.889679,124.094994 454.986389,135.638519 
	C454.854797,137.320541 454.384735,138.976105 453.884247,141.639389 
	C448.393951,137.761719 443.757690,134.487213 437.943909,130.381073 
	C439.318665,134.387756 440.132324,137.145813 441.199036,139.802246 
	C446.246582,152.371918 449.399017,165.408478 449.889435,178.926025 
	C450.302277,190.306320 449.962494,201.713913 449.945801,213.554321 
z"/>
<path fill="#4C2B18" opacity="1.000000" stroke="none" 
	d="
M325.996948,384.625916 
	C325.312012,384.742188 324.420380,384.569214 323.279999,384.156555 
	C323.950928,384.056793 324.870544,384.196747 325.996948,384.625916 
z"/>
<path fill="#4E9863" opacity="1.000000" stroke="none" 
	d="
M300.965759,418.101074 
	C307.631042,413.424713 314.288483,409.020172 321.011169,404.717682 
	C322.700592,403.636475 324.599396,402.882507 325.938416,401.178833 
	C319.111267,397.895081 320.869812,393.529083 321.419495,387.897980 
	C328.445282,391.178925 335.306793,393.448334 341.105042,397.312958 
	C349.512390,402.916626 348.939819,410.647583 340.359192,415.916260 
	C330.882782,421.735016 320.379791,424.698273 309.732086,426.655701 
	C307.150543,423.507751 309.665955,415.772644 301.359680,418.880341 
	C301.001495,418.823517 300.991791,418.617096 300.965759,418.101074 
z"/>
<path fill="#62B97A" opacity="1.000000" stroke="none" 
	d="
M245.844498,419.827820 
	C244.618912,419.631683 243.160385,419.261993 241.922211,418.523102 
	C234.840240,414.296661 234.974533,408.968140 242.589508,403.787842 
	C240.999161,409.609680 243.195511,414.575287 245.844498,419.827820 
z"/>
<path fill="#4C2911" opacity="1.000000" stroke="none" 
	d="
M356.014282,437.015564 
	C356.235809,436.661072 356.591492,436.467590 356.947144,436.274109 
	C356.892975,436.603668 356.838806,436.933258 356.604736,437.377228 
	C356.424866,437.491638 356.148468,437.176544 356.014282,437.015564 
z"/>
<path fill="#62B97A" opacity="1.000000" stroke="none" 
	d="
M243.049042,403.875519 
	C242.793823,403.808014 242.675751,403.625946 242.713333,403.157532 
	C242.974701,403.167786 243.080429,403.464355 243.049042,403.875519 
z"/>
<path fill="#4F4755" opacity="1.000000" stroke="none" 
	d="
M95.910782,446.988220 
	C95.702599,440.401459 96.323853,434.527252 99.476486,428.584351 
	C104.930931,418.302521 105.515152,407.807739 97.465080,397.838226 
	C92.095703,391.188599 96.527588,379.643188 104.867928,377.875671 
	C108.183350,377.173035 111.902847,376.925812 115.160339,377.676971 
	C124.433838,379.815430 126.436394,382.970795 124.971779,392.208130 
	C123.097366,404.030029 121.037476,415.823273 118.939598,427.607910 
	C118.694336,428.985596 118.031281,430.633789 117.003609,431.472412 
	C109.256577,437.794189 108.033249,446.185974 109.017921,455.371033 
	C109.103889,456.172974 109.029312,456.992126 109.029312,457.976166 
	C104.546501,454.259064 100.339676,450.770813 95.910782,446.988220 
z"/>
<path fill="#FBD2AC" opacity="1.000000" stroke="none" 
	d="
M90.118500,433.826294 
	C90.092659,437.732300 91.242371,441.887878 89.722214,444.474091 
	C88.571983,446.430969 84.005486,446.356354 80.975227,447.240265 
	C79.090652,447.790009 77.235687,448.441223 75.352737,449.051636 
	C72.331375,445.465210 71.380402,441.836121 73.084579,437.432098 
	C76.861946,427.670410 80.318474,417.784576 84.098137,408.023834 
	C85.280563,404.970306 86.936127,400.811218 90.870361,402.249756 
	C93.560204,403.233307 96.198151,406.612030 97.195335,409.495392 
	C99.178955,415.230927 97.540359,421.014801 94.744049,426.299927 
	C93.430389,428.782806 91.692238,431.041138 90.118500,433.826294 
z"/>
<path fill="#FAD1AA" opacity="1.000000" stroke="none" 
	d="
M78.367950,490.110992 
	C74.750931,491.522949 71.539009,492.848419 68.301361,494.184479 
	C63.031773,488.204498 63.080208,485.577515 69.547050,481.217529 
	C77.359612,475.950226 86.057823,473.152527 95.538475,475.099762 
	C98.430313,475.693726 101.735611,477.317749 103.460670,479.546539 
	C104.744942,481.205811 104.649361,485.030945 103.608696,487.111237 
	C102.335518,489.656311 100.153564,491.417908 95.927979,490.454987 
	C90.460892,489.209106 84.513596,490.070435 78.367950,490.110992 
z"/>
<path fill="#FBD2AB" opacity="1.000000" stroke="none" 
	d="
M70.706787,459.783997 
	C75.658546,457.200958 80.126472,454.102142 85.074181,452.716492 
	C92.960426,450.507965 100.193604,454.421570 103.289276,461.946136 
	C104.007347,463.691559 103.497131,466.477478 102.510643,468.181793 
	C101.948372,469.153229 99.178764,469.430115 97.577957,469.119293 
	C89.396118,467.530518 83.829124,468.217438 70.017029,473.099487 
	C65.468956,468.290100 65.552284,465.705841 70.706787,459.783997 
z"/>
<path fill="#4F4754" opacity="1.000000" stroke="none" 
	d="
M116.105553,365.582001 
	C110.335480,365.458527 104.973137,365.458527 99.127373,365.458527 
	C102.458519,360.279236 105.744522,354.575897 109.646973,349.331207 
	C111.894730,346.310364 119.039658,347.492798 120.337761,351.017944 
	C122.259590,356.236908 123.539871,361.692139 125.445786,368.261810 
	C121.696022,367.188690 119.104652,366.447083 116.105553,365.582001 
z"/>
<path fill="#918691" opacity="1.000000" stroke="none" 
	d="
M97.040146,376.034821 
	C97.746086,374.770599 98.131691,372.950623 99.208565,372.329895 
	C107.917061,367.310272 119.417503,369.339478 126.335297,377.414062 
	C126.023659,378.051544 125.853065,378.190155 125.682465,378.328766 
	C116.865219,371.604706 107.482010,371.624237 97.370590,375.992920 
	C97.006561,376.002563 97.040146,376.034821 97.040146,376.034821 
z"/>
<path fill="#8D808A" opacity="1.000000" stroke="none" 
	d="
M125.064545,429.516907 
	C126.653198,419.541992 128.271072,409.969086 129.888931,400.396210 
	C130.291061,400.398193 130.693176,400.400177 131.095291,400.402191 
	C131.311493,401.591827 131.857864,402.830170 131.690781,403.963287 
	C130.533218,411.814117 129.310043,419.658417 127.862457,427.459259 
	C127.684647,428.417419 126.052124,429.105621 125.064545,429.516907 
z"/>
<path fill="#918691" opacity="1.000000" stroke="none" 
	d="
M96.991310,375.985046 
	C96.976059,375.967499 96.796295,376.291840 96.796295,376.291840 
	C96.796295,376.291840 96.831429,376.016052 96.935791,376.025452 
	C97.040146,376.034821 97.006561,376.002563 96.991310,375.985046 
z"/>
<path fill="#918691" opacity="1.000000" stroke="none" 
	d="
M126.474205,377.738770 
	C126.521973,377.954071 126.289787,378.343597 125.870033,378.530945 
	C125.853065,378.190155 126.023659,378.051544 126.474205,377.738770 
z"/>
<path fill="#4F4755" opacity="1.000000" stroke="none" 
	d="
M109.443687,460.516693 
	C109.412216,460.460358 109.475159,460.573029 109.443687,460.516693 
z"/>
<path fill="#FDD7B3" opacity="1.000000" stroke="none" 
	d="
M177.015305,134.002701 
	C192.027451,122.489891 209.473343,117.442574 227.867432,115.125496 
	C266.550751,110.252594 303.004333,118.963280 338.352417,133.812714 
	C340.256073,134.612411 342.189575,137.073837 342.721893,139.122223 
	C346.027710,151.843262 349.085907,164.634705 351.899628,177.474380 
	C352.930511,182.178513 355.041779,183.959778 360.018829,184.072647 
	C373.503754,184.378448 386.968201,185.552002 400.453217,185.902298 
	C405.323914,186.028824 407.609680,187.538895 407.160614,192.662109 
	C401.171295,192.662109 395.125000,192.751556 389.082489,192.638412 
	C382.253510,192.510544 375.427704,192.064407 368.601166,192.078339 
	C367.136200,192.081314 365.674011,193.462372 364.210541,194.208633 
	C365.622772,195.197861 366.984711,196.958801 368.455200,197.054642 
	C380.589233,197.845398 392.740112,198.421310 404.893555,198.842682 
	C408.295105,198.960632 409.951935,199.926407 408.926300,203.978180 
	C400.722870,203.615372 392.441711,203.200806 384.156281,202.903580 
	C380.162018,202.760300 376.153107,202.704529 372.165497,202.903107 
	C371.075256,202.957397 370.038025,204.075699 368.976471,204.705719 
	C369.954590,205.621170 370.848938,207.201080 371.925385,207.336838 
	C376.543701,207.919312 381.212128,208.260925 385.868713,208.348114 
	C393.819794,208.497025 401.775696,208.389191 409.974548,208.389191 
	C409.974548,211.039047 409.974548,212.436142 409.974548,213.967178 
	C399.651642,214.747620 389.426636,211.528015 378.416473,214.494781 
	C382.694275,218.976700 387.363495,217.777771 391.542206,218.059265 
	C395.799286,218.346039 400.090729,218.122696 404.972137,218.122696 
	C401.786255,222.754150 399.205231,226.506256 396.624237,230.258362 
	C397.132416,230.661453 397.640564,231.064545 398.148743,231.467621 
	C399.461365,230.328384 400.802582,229.220291 402.082031,228.044952 
	C411.864563,219.058258 423.425598,216.044449 436.328156,218.254272 
	C450.272614,220.642532 460.554047,233.226807 461.969055,249.444565 
	C463.765625,270.035736 454.366913,285.502960 438.876160,297.721497 
	C427.758362,306.490845 414.913208,311.248474 400.639221,312.115448 
	C398.804626,312.226868 396.478241,313.785706 395.402893,315.368988 
	C385.217407,330.365540 373.325684,343.722717 358.461884,355.191223 
	C356.611694,353.165070 355.055725,351.026550 353.059723,349.442474 
	C351.908813,348.529144 350.046814,348.511780 348.504852,348.091125 
	C348.812042,349.682800 348.747406,351.490723 349.516754,352.813690 
	C350.573792,354.631531 352.262329,356.082123 354.187195,358.264862 
	C349.593964,361.158112 345.322449,363.848663 340.649414,366.792145 
	C338.478943,364.423035 336.657257,362.054230 334.424591,360.173340 
	C333.446350,359.349274 331.628754,359.521576 330.192322,359.241455 
	C330.387054,360.684784 330.167511,362.385925 330.869293,363.513763 
	C332.055237,365.419678 333.824188,366.962830 335.825623,369.189972 
	C330.406403,371.613159 325.617584,373.754486 320.656616,375.972809 
	C318.882202,373.561066 317.491547,371.250214 315.657562,369.372375 
	C314.853699,368.549316 313.144897,368.610107 311.847015,368.269592 
	C311.785004,369.600647 311.285217,371.121033 311.760406,372.219788 
	C312.533325,374.006989 313.943909,375.518433 315.657623,377.962311 
	C309.980316,379.844452 304.760406,381.689758 299.445801,383.202148 
	C298.722900,383.407867 297.306000,382.121613 296.599457,381.220978 
	C295.479248,379.793030 294.894989,377.913574 293.674957,376.607086 
	C292.994446,375.878357 291.487823,375.921082 290.353455,375.616150 
	C290.054565,376.779327 289.248688,378.107910 289.562897,379.071106 
	C290.207336,381.046906 291.452179,382.826813 292.829346,385.395142 
	C286.422943,386.647766 280.591614,387.787964 274.378906,389.057770 
	C272.235474,386.453583 270.645294,383.582520 268.626343,381.053894 
	C267.824493,380.049622 266.071991,379.804352 264.752289,379.213562 
	C264.532745,380.541351 263.851501,382.006744 264.196899,383.166290 
	C264.783234,385.134735 266.016693,386.910431 267.525818,389.824677 
	C260.674866,389.824677 254.776459,389.952118 248.894226,389.700958 
	C247.897964,389.658386 246.595795,388.153442 246.098373,387.030304 
	C245.306747,385.242889 245.361694,383.067444 244.510483,381.323700 
	C243.847946,379.966461 242.350723,379.016693 241.224487,377.885834 
	C240.699066,379.364594 239.751007,380.843933 239.753036,382.321960 
	C239.755676,384.258759 240.508148,386.194519 240.950623,388.518036 
	C238.324280,388.573608 235.677063,388.297241 233.048157,387.899750 
	C225.256973,386.721649 225.386703,386.683228 224.209045,379.113159 
	C223.970276,377.578339 222.373627,376.254761 221.402969,374.833801 
	C220.697372,376.457306 219.721054,378.024902 219.370804,379.721741 
	C219.084244,381.110168 219.544006,382.652618 219.763840,385.166962 
	C214.472031,383.488098 209.598328,382.198364 204.981476,380.287903 
	C203.894135,379.837952 203.524353,377.333801 203.100754,375.702911 
	C202.771622,374.435760 203.200439,372.913757 202.698776,371.764069 
	C202.070908,370.325195 200.835495,369.151489 199.862320,367.863312 
	C198.902084,369.306366 197.860840,370.704773 197.026901,372.217438 
	C196.746735,372.725647 196.994019,373.524658 196.637741,374.455719 
	C179.252258,364.557709 165.912003,350.939301 160.592484,331.541748 
	C155.871185,314.325562 159.179657,297.497284 167.644226,281.819275 
	C169.748642,277.921478 170.517792,274.306885 168.956207,269.947479 
	C166.996353,264.476227 165.267029,258.850281 164.185471,253.149307 
	C159.988815,231.028290 157.040710,208.723862 160.155640,186.229355 
	C161.674774,175.258942 164.244644,164.357559 167.316025,153.706696 
	C169.218918,147.107895 172.956573,141.038208 175.870636,134.731018 
	C175.870636,134.731018 176.030426,134.853958 176.150146,134.761032 
	C176.518188,134.446121 176.766663,134.224319 177.015305,134.002701 
M227.315018,315.556458 
	C229.716019,319.209625 232.800186,319.508759 237.522415,317.070068 
	C234.502350,315.351959 232.207016,314.046143 230.091934,311.969543 
	C230.340088,309.038818 231.180115,305.982544 230.595963,303.228333 
	C230.286743,301.770355 227.436218,299.785614 225.846436,299.883392 
	C222.366333,300.097412 218.611313,305.795837 219.135223,309.197235 
	C219.818924,313.635956 222.786118,315.185791 227.315018,315.556458 
M450.924347,251.964996 
	C451.136963,239.620132 441.224182,230.535995 428.988892,231.863220 
	C417.583038,233.100449 403.580688,244.984512 400.248383,256.500916 
	C407.779297,261.390564 412.539581,268.035797 411.252136,277.616638 
	C409.843323,288.100616 401.946838,291.099945 391.865509,292.226379 
	C397.752869,295.376038 401.288666,295.130249 411.358276,291.798309 
	C430.098541,288.045807 449.933380,276.524506 450.924347,251.964996 
M310.206268,236.714096 
	C308.584137,238.150177 306.941437,239.563751 305.343414,241.026169 
	C297.721527,248.001297 289.929169,254.807632 282.641602,262.116852 
	C281.058533,263.704620 280.868378,267.119965 280.915283,269.677429 
	C280.933960,270.696014 283.212219,272.275635 284.671722,272.574310 
	C304.087158,276.547302 323.561523,280.233887 342.964935,284.262909 
	C346.795715,285.058350 348.295563,283.899017 348.625336,280.347656 
	C348.779236,278.690460 348.907227,277.030701 349.035614,275.371277 
	C349.314362,271.769562 348.073975,270.042816 344.038055,269.751770 
	C327.921234,268.589600 311.830292,267.067291 295.731476,265.658691 
	C294.223328,265.526764 292.727203,265.257141 289.891541,264.868713 
	C305.753876,254.506439 320.250000,244.795456 335.029633,235.537033 
	C339.158447,232.950623 339.629852,230.265182 337.701233,226.464935 
	C336.877625,224.842026 335.721069,223.390976 334.762726,221.832947 
	C332.830933,218.692200 330.729706,218.375809 327.919189,220.958633 
	C322.275635,226.144974 316.470306,231.155304 310.206268,236.714096 
M219.015350,265.540771 
	C206.482437,255.611374 193.977814,245.645752 181.373123,235.808334 
	C180.104584,234.818298 177.783707,233.679626 176.716705,234.194931 
	C172.711243,236.129471 172.953293,247.134644 176.868958,249.352478 
	C188.309937,255.832596 199.785477,262.251617 211.231796,268.722351 
	C212.271667,269.310181 213.198898,270.097260 214.686829,271.152283 
	C202.194092,274.996643 190.541351,278.767456 178.767624,282.112457 
	C174.210938,283.407074 172.774109,285.720062 174.151794,290.083282 
	C174.552063,291.350891 174.828079,292.657257 175.210724,293.930939 
	C176.144714,297.039734 177.418106,298.116211 180.970184,296.383911 
	C193.974167,290.042084 207.110245,283.954041 220.363983,278.152893 
	C223.886414,276.611115 224.521423,274.410736 223.464600,271.545715 
	C222.707886,269.494324 220.917038,267.824402 219.015350,265.540771 
M298.477509,327.174408 
	C298.263947,323.545502 297.096344,320.432831 292.994598,320.002625 
	C273.604797,317.968994 255.163101,320.730469 238.264664,331.119141 
	C234.636566,333.349579 233.714310,336.499176 235.413376,340.067810 
	C239.804840,349.291443 245.122955,357.907898 253.096848,364.589233 
	C268.614838,377.591736 287.133850,373.150482 295.019257,354.554077 
	C298.635956,346.024719 298.781189,337.069733 298.477509,327.174408 
M297.997253,193.461655 
	C312.512268,183.427750 328.651093,181.087341 347.168671,184.739273 
	C345.473328,182.443741 345.011322,181.588989 344.343719,180.948456 
	C333.384155,170.432846 320.268738,163.218719 306.746460,156.685074 
	C305.478668,156.072479 303.308167,156.131836 302.080627,156.817307 
	C289.819550,163.664047 277.668488,170.707733 264.786102,178.097580 
	C270.862152,187.224716 276.146912,195.163269 281.484253,203.180740 
	C287.350006,199.728821 292.357880,196.781784 297.997253,193.461655 
M223.539581,180.890686 
	C215.149155,176.895615 206.823868,172.753448 198.330124,168.991669 
	C195.647980,167.803757 192.254608,165.861542 189.764450,169.443588 
	C183.056259,179.093231 176.470047,188.828384 169.928421,198.591919 
	C169.315308,199.506973 169.361069,200.863495 168.929062,202.775726 
	C171.347458,201.806900 172.843048,201.159424 174.371933,200.603485 
	C181.950089,197.847839 189.434021,195.826630 197.428818,199.671371 
	C204.682083,203.159515 212.235504,206.023514 220.595245,209.559723 
	C222.285767,200.589050 223.917252,192.159683 225.392456,183.703033 
	C225.520828,182.967194 224.619858,182.051788 223.539581,180.890686 
M271.865814,196.598953 
	C268.516235,191.500397 265.166626,186.401840 261.817047,181.303284 
	C261.320465,181.262695 260.823883,181.222107 260.327332,181.181519 
	C260.108337,182.794235 259.139648,184.854752 259.792053,185.947006 
	C264.036407,193.052948 268.624298,199.954132 273.138855,206.896957 
	C273.373230,207.257401 273.964905,207.385513 274.575806,207.724854 
	C275.685181,206.872299 276.809906,206.007950 278.055603,205.050629 
	C275.987762,202.242416 274.128204,199.717102 271.865814,196.598953 
M227.661499,210.786758 
	C229.073776,203.651886 230.625443,196.539734 231.795807,189.365402 
	C232.072357,187.670059 231.066650,185.765549 230.650803,183.957260 
	C227.459274,192.514511 225.490448,200.675583 223.724640,208.880356 
	C223.072281,211.911575 224.017090,212.467728 227.661499,210.786758 
z"/>
<path fill="#FBD4B1" opacity="1.000000" stroke="none" 
	d="
M314.726166,397.626465 
	C315.731659,401.968658 314.049316,404.864929 310.159271,406.925873 
	C298.187469,413.268372 286.285919,419.743500 274.143280,426.282196 
	C269.324066,420.631836 269.441559,414.014008 270.094055,407.223083 
	C277.743713,406.211273 284.739441,405.990814 291.460388,404.517181 
	C299.340424,402.789429 306.981476,399.971558 314.726166,397.626465 
z"/>
<path fill="#E9AEA9" opacity="1.000000" stroke="none" 
	d="
M314.805298,397.259491 
	C306.981476,399.971558 299.340424,402.789429 291.460388,404.517181 
	C284.739441,405.990814 277.743713,406.211273 270.404083,406.972931 
	C270.462158,405.022705 270.949768,403.074921 271.519379,401.151489 
	C272.077301,399.267578 272.718750,397.408386 273.662750,395.335693 
	C286.349976,392.228912 298.698486,389.326965 311.045135,386.417053 
	C312.143677,386.158112 313.230042,385.847412 314.693176,385.771790 
	C315.004333,389.619415 314.944397,393.255981 314.805298,397.259491 
z"/>
<path fill="#F2EEED" opacity="1.000000" stroke="none" 
	d="
M299.458313,438.572205 
	C295.940460,449.862152 292.555389,460.798096 289.294983,471.771088 
	C288.889618,473.135376 289.125183,474.696045 289.101288,476.166321 
	C289.069000,478.156128 289.677063,480.432251 288.905792,482.063171 
	C287.976440,484.028442 285.888855,485.446014 284.302673,487.100708 
	C283.489227,485.119263 281.828583,483.036469 282.050842,481.178925 
	C282.432190,477.991577 284.039398,474.960999 285.044434,471.836456 
	C289.409698,458.265289 293.610138,444.638855 298.184052,431.138763 
	C299.298859,427.848389 301.602325,424.960754 303.868347,422.136902 
	C306.212982,428.645996 301.431580,433.021332 299.458313,438.572205 
z"/>
<path fill="#F2EFEE" opacity="1.000000" stroke="none" 
	d="
M246.274323,459.389221 
	C245.254807,466.124512 244.356628,472.465332 243.433075,478.802429 
	C243.290283,479.782166 243.329865,480.999634 242.764191,481.662872 
	C241.563187,483.071167 240.019104,484.186920 238.615662,485.422577 
	C237.719360,483.656677 235.900879,481.766327 236.118820,480.150757 
	C236.572006,476.791748 238.136185,473.588501 239.187592,470.303284 
	C243.540802,456.701233 247.737778,443.046783 252.310593,429.519196 
	C253.417480,426.244812 255.739639,423.381256 257.502960,420.328766 
	C258.104034,420.541870 258.705109,420.754974 259.306152,420.968079 
	C258.765503,423.536499 258.512848,426.208405 257.633881,428.655334 
	C253.988007,438.805084 250.152939,448.886810 246.274323,459.389221 
z"/>
<path fill="#48404F" opacity="1.000000" stroke="none" 
	d="
M188.086044,45.073227 
	C187.877426,44.325447 187.668793,43.577667 187.363724,42.484192 
	C196.267075,44.825161 204.681671,47.304134 213.221390,49.227680 
	C231.178009,53.272346 249.133591,54.206848 267.579926,51.480469 
	C280.982422,49.499569 294.804382,49.822823 308.426208,50.020760 
	C320.300201,50.193298 332.401031,50.418129 343.967285,52.762638 
	C366.296448,57.288807 384.661316,68.802139 397.551086,88.143814 
	C398.479645,89.537148 399.845917,90.638756 401.733032,91.640907 
	C403.699249,78.107567 403.437561,64.789108 400.773987,51.444088 
	C401.519073,51.097961 402.264160,50.751835 403.009247,50.405708 
	C406.643036,54.245148 410.909058,57.667103 413.777863,62.011677 
	C419.594360,70.820343 421.552673,80.634453 418.839447,91.121071 
	C418.344330,93.034721 417.801239,95.130608 418.122375,96.997505 
	C418.367035,98.419785 419.724152,100.452431 420.963684,100.778358 
	C433.989746,104.203384 441.082062,113.559929 446.020477,125.598251 
	C445.992310,126.021530 445.880005,126.142677 445.880005,126.142670 
	C442.133942,124.374428 438.537781,122.012047 434.596466,121.017677 
	C431.172974,120.153946 427.359009,120.837952 423.171112,120.837952 
	C426.643524,127.139694 429.926117,132.309235 432.450134,137.825851 
	C439.910461,154.131454 442.638306,171.455429 443.137207,189.273682 
	C443.350708,196.898788 444.354370,204.501755 444.995331,212.550018 
	C441.914703,212.334076 438.859406,211.288513 435.756073,211.118103 
	C430.183746,210.812119 424.582611,211.031769 418.507843,211.031769 
	C417.055573,203.496201 415.274414,195.626694 414.079163,187.669159 
	C412.865295,179.587646 412.595306,179.281174 404.594025,178.986389 
	C390.482269,178.466476 376.371704,177.797409 362.287872,176.804382 
	C360.743256,176.695465 358.518433,174.282379 358.067169,172.556747 
	C355.123810,161.301071 352.444794,149.970200 349.968903,138.600876 
	C348.738007,132.948456 345.943817,129.333008 340.395264,127.078705 
	C316.696198,117.450111 292.414215,110.343658 266.838318,107.858070 
	C245.745148,105.808136 225.030334,107.373329 204.573242,112.855217 
	C191.024475,116.485870 178.441895,122.643639 167.965698,131.540878 
	C161.811142,136.767838 157.934753,145.099960 154.140350,152.595642 
	C146.127274,168.425125 142.252838,185.389328 142.978989,203.218262 
	C143.145584,207.308548 142.151031,209.073303 137.617035,209.385574 
	C133.967651,209.636917 130.441071,211.671417 126.498001,212.934402 
	C126.214127,204.791855 126.292259,196.629639 126.533615,187.781158 
	C128.946594,172.927078 133.782822,159.140213 133.268387,144.160248 
	C131.028992,144.160248 129.087692,144.160248 127.084915,144.096313 
	C127.023438,144.032379 126.897018,143.907913 127.020538,143.595673 
	C137.678589,132.943466 147.806976,122.326080 152.446579,107.318474 
	C144.617569,106.106522 137.546570,105.011909 130.475586,103.917297 
	C130.464157,103.450317 130.452713,102.983337 130.441269,102.516365 
	C147.795578,98.500458 164.915146,93.920074 180.377457,83.178490 
	C169.581680,76.352890 160.710648,69.133286 155.103302,58.271034 
	C164.300507,58.790596 172.906158,59.774498 181.495255,59.646679 
	C194.773834,59.449089 202.563629,57.640469 206.561752,55.084503 
	C202.276321,52.471302 197.939835,49.716076 193.484879,47.167919 
	C191.827972,46.220203 189.893784,45.757240 188.086044,45.073227 
M263.069824,84.083466 
	C263.069824,84.083466 262.815094,83.833931 262.778412,83.055038 
	C262.498535,76.373322 259.031647,73.259422 252.576431,74.233788 
	C249.801254,74.652679 247.027634,75.434120 244.403244,76.441498 
	C229.340530,82.223366 214.207947,87.848495 199.333084,94.084984 
	C190.455261,97.807137 181.951996,102.447227 173.391434,106.888779 
	C170.213669,108.537529 168.903305,111.518112 170.569397,114.917389 
	C172.269608,118.386292 175.393082,118.612160 178.724396,117.500137 
	C179.506317,117.239136 180.209396,116.751419 180.971664,116.420792 
	C201.254013,107.623070 221.534943,98.822006 241.834473,90.064056 
	C243.142181,89.499878 244.597260,89.277321 245.997040,88.892197 
	C248.291962,98.486992 250.713379,100.098663 260.211487,97.973915 
	C272.060669,95.323235 283.849487,92.402626 295.664886,89.600815 
	C298.249329,88.987968 301.274902,89.012215 303.296722,87.598274 
	C305.270203,86.218155 307.792969,82.791237 307.244843,81.309967 
	C306.448212,79.157173 303.305969,77.373726 300.794647,76.522507 
	C299.004181,75.915634 296.592590,77.037659 294.481812,77.496742 
	C284.090485,79.756844 273.707031,82.053230 263.069824,84.083466 
M314.589355,86.069679 
	C317.143341,85.688759 320.154480,85.980667 322.078888,84.673126 
	C323.222778,83.895882 323.471375,80.224754 322.683929,78.518730 
	C321.177643,75.255325 318.097992,74.271172 314.714325,76.237793 
	C311.376862,78.177544 311.161255,81.438789 314.589355,86.069679 
z"/>
<path fill="#FAF2EA" opacity="1.000000" stroke="none" 
	d="
M175.538239,134.830688 
	C172.956573,141.038208 169.218918,147.107895 167.316025,153.706696 
	C164.244644,164.357559 161.674774,175.258942 160.155640,186.229355 
	C157.040710,208.723862 159.988815,231.028290 164.185471,253.149307 
	C165.267029,258.850281 166.996353,264.476227 168.956207,269.947479 
	C170.517792,274.306885 169.748642,277.921478 167.644226,281.819275 
	C159.179657,297.497284 155.871185,314.325562 160.592484,331.541748 
	C165.912003,350.939301 179.252258,364.557709 196.575302,374.880615 
	C195.969330,375.239380 194.836212,375.893402 194.190231,375.571106 
	C171.664627,364.332672 148.267258,337.903625 150.414413,309.297424 
	C151.129929,299.764801 155.444168,290.525848 157.836166,281.082458 
	C158.646713,277.882477 159.311707,274.361206 158.836060,271.166504 
	C155.975876,251.955551 151.773941,232.892548 149.909943,213.597580 
	C147.310547,186.690277 154.447174,161.852478 170.234039,139.724167 
	C171.548523,137.881683 173.532791,136.517029 175.538239,134.830688 
z"/>
<path fill="#FCD6B2" opacity="1.000000" stroke="none" 
	d="
M125.985947,245.936035 
	C126.960419,245.340500 128.225494,244.955780 128.844574,244.102417 
	C129.901947,242.644882 130.163910,240.398651 131.462494,239.374313 
	C133.760559,237.561600 136.684814,235.114914 139.166351,235.304016 
	C142.710724,235.574112 145.525879,238.315948 146.240616,242.561844 
	C147.554245,250.365479 149.519669,257.962616 146.998856,266.049988 
	C145.873962,269.658844 146.017334,274.156250 147.057007,277.834381 
	C148.744095,283.802979 148.035492,289.182312 145.154953,294.740723 
	C132.806641,284.618683 127.115387,271.256104 125.144119,256.159454 
	C124.711304,252.844818 125.668739,249.348618 125.985947,245.936035 
z"/>
<path fill="#F9F0E8" opacity="1.000000" stroke="none" 
	d="
M125.959030,245.538086 
	C125.668739,249.348618 124.711304,252.844818 125.144119,256.159454 
	C127.115387,271.256104 132.806641,284.618683 144.899826,295.014160 
	C144.725021,298.410400 144.237701,301.642487 143.603134,305.851257 
	C140.662018,303.396362 138.156952,301.565186 135.952545,299.424438 
	C117.742584,281.740479 112.020050,250.276154 123.038589,228.809967 
	C127.498421,220.121368 134.002655,216.342148 143.012131,217.523865 
	C143.401367,221.495132 143.800735,225.569794 144.113571,228.761551 
	C140.158554,229.329865 136.064957,228.852600 133.302643,230.546417 
	C128.227737,233.658340 126.798576,239.448242 125.959030,245.538086 
z"/>
<path fill="#DBB796" opacity="1.000000" stroke="none" 
	d="
M150.026062,272.002106 
	C150.152649,270.200348 150.280991,268.817413 150.409332,267.434479 
	C152.326599,271.107452 155.065704,274.631256 151.029922,279.119507 
	C150.646011,276.553314 150.336914,274.487122 150.026062,272.002106 
z"/>
<path fill="#FAF2EA" opacity="1.000000" stroke="none" 
	d="
M176.731781,134.051682 
	C176.766663,134.224319 176.518188,134.446121 176.090179,134.842041 
	C176.089737,134.710876 176.268997,134.405777 176.731781,134.051682 
z"/>
<path fill="#AA84AF" opacity="1.000000" stroke="none" 
	d="
M188.180634,45.395126 
	C189.893784,45.757240 191.827972,46.220203 193.484879,47.167919 
	C197.939835,49.716076 202.276321,52.471302 206.561752,55.084503 
	C202.563629,57.640469 194.773834,59.449089 181.495255,59.646679 
	C172.906158,59.774498 164.300507,58.790596 155.103302,58.271034 
	C160.710648,69.133286 169.581680,76.352890 180.377457,83.178490 
	C164.915146,93.920074 147.795578,98.500458 130.441269,102.516365 
	C130.452713,102.983337 130.464157,103.450317 130.475586,103.917297 
	C137.546570,105.011909 144.617569,106.106522 152.446579,107.318474 
	C147.806976,122.326080 137.678589,132.943466 126.874146,143.661682 
	C126.784958,144.080032 126.965675,144.120132 127.146393,144.160248 
	C129.087692,144.160248 131.028992,144.160248 133.268387,144.160248 
	C133.782822,159.140213 128.946594,172.927078 126.497528,187.370407 
	C125.129173,176.424973 123.960114,165.204025 122.733704,153.432587 
	C114.903320,153.432587 106.888351,153.432587 98.873383,153.432587 
	C115.919609,144.755981 130.063614,133.462967 141.129456,116.900917 
	C124.641518,113.128433 109.908440,107.484825 96.310387,95.800171 
	C119.885155,97.019142 141.627884,95.341255 162.171021,83.292702 
	C150.774155,71.614952 143.831238,58.115276 138.414398,42.297043 
	C156.515320,50.612560 173.950684,55.052597 193.859726,50.565399 
	C191.571045,48.578388 189.923141,47.147709 188.180634,45.395126 
z"/>
<path fill="#48404F" opacity="1.000000" stroke="none" 
	d="
M446.051758,125.964188 
	C446.111176,125.906845 446.400635,126.267380 446.400635,126.267380 
	C446.400635,126.267380 446.035828,126.325539 445.957916,126.234108 
	C445.880005,126.142677 445.992310,126.021530 446.051758,125.964188 
z"/>
<path fill="#4B2A16" opacity="1.000000" stroke="none" 
	d="
M310.468994,236.476196 
	C316.470306,231.155304 322.275635,226.144974 327.919189,220.958633 
	C330.729706,218.375809 332.830933,218.692200 334.762726,221.832947 
	C335.721069,223.390976 336.877625,224.842026 337.701233,226.464935 
	C339.629852,230.265182 339.158447,232.950623 335.029633,235.537033 
	C320.250000,244.795456 305.753876,254.506439 289.891541,264.868713 
	C292.727203,265.257141 294.223328,265.526764 295.731476,265.658691 
	C311.830292,267.067291 327.921234,268.589600 344.038055,269.751770 
	C348.073975,270.042816 349.314362,271.769562 349.035614,275.371277 
	C348.907227,277.030701 348.779236,278.690460 348.625336,280.347656 
	C348.295563,283.899017 346.795715,285.058350 342.964935,284.262909 
	C323.561523,280.233887 304.087158,276.547302 284.671722,272.574310 
	C283.212219,272.275635 280.933960,270.696014 280.915283,269.677429 
	C280.868378,267.119965 281.058533,263.704620 282.641602,262.116852 
	C289.929169,254.807632 297.721527,248.001297 305.343414,241.026169 
	C306.941437,239.563751 308.584137,238.150177 310.468994,236.476196 
z"/>
<path fill="#EBB0AB" opacity="1.000000" stroke="none" 
	d="
M450.884766,252.800140 
	C449.933380,276.524506 430.098541,288.045807 411.150635,291.471375 
	C421.326355,280.961761 420.311737,267.455383 407.449493,253.435898 
	C411.430115,249.783264 415.059418,245.623367 419.459045,242.575439 
	C431.388916,234.310867 441.463562,237.181213 448.115082,250.125046 
	C448.670441,251.205780 449.944580,251.917145 450.884766,252.800140 
z"/>
<path fill="#4B2A16" opacity="1.000000" stroke="none" 
	d="
M219.301453,265.762512 
	C220.917038,267.824402 222.707886,269.494324 223.464600,271.545715 
	C224.521423,274.410736 223.886414,276.611115 220.363983,278.152893 
	C207.110245,283.954041 193.974167,290.042084 180.970184,296.383911 
	C177.418106,298.116211 176.144714,297.039734 175.210724,293.930939 
	C174.828079,292.657257 174.552063,291.350891 174.151794,290.083282 
	C172.774109,285.720062 174.210938,283.407074 178.767624,282.112457 
	C190.541351,278.767456 202.194092,274.996643 214.686829,271.152283 
	C213.198898,270.097260 212.271667,269.310181 211.231796,268.722351 
	C199.785477,262.251617 188.309937,255.832596 176.868958,249.352478 
	C172.953293,247.134644 172.711243,236.129471 176.716705,234.194931 
	C177.783707,233.679626 180.104584,234.818298 181.373123,235.808334 
	C193.977814,245.645752 206.482437,255.611374 219.301453,265.762512 
z"/>
<path fill="#532812" opacity="1.000000" stroke="none" 
	d="
M298.493347,327.609558 
	C298.781189,337.069733 298.635956,346.024719 295.019257,354.554077 
	C287.133850,373.150482 268.614838,377.591736 253.096848,364.589233 
	C245.122955,357.907898 239.804840,349.291443 235.413376,340.067810 
	C233.714310,336.499176 234.636566,333.349579 238.264664,331.119141 
	C255.163101,320.730469 273.604797,317.968994 292.994598,320.002625 
	C297.096344,320.432831 298.263947,323.545502 298.493347,327.609558 
M285.289246,325.074036 
	C278.261719,325.270355 270.908356,323.633392 264.957764,329.316498 
	C258.427917,335.552795 253.599579,342.753387 251.708832,351.676575 
	C251.429947,352.992737 251.372086,354.952454 252.126755,355.795624 
	C257.697052,362.019379 264.035675,367.198730 273.080261,366.369690 
	C281.698975,365.579712 287.168304,360.024536 289.572937,352.362640 
	C291.623779,345.828064 292.305328,338.764709 292.824951,331.877350 
	C293.314911,325.383423 292.780396,325.255341 285.289246,325.074036 
M259.001495,328.609772 
	C253.214218,330.832184 247.397354,332.983978 241.681610,335.377167 
	C241.051727,335.640900 240.438065,337.566467 240.775253,338.245209 
	C242.558258,341.834381 244.648148,345.271118 246.514618,348.554810 
	C250.940765,341.684906 254.961884,335.443604 259.001495,328.609772 
z"/>
<path fill="#4E2E0F" opacity="1.000000" stroke="none" 
	d="
M297.681519,193.648193 
	C292.357880,196.781784 287.350006,199.728821 281.484253,203.180740 
	C276.146912,195.163269 270.862152,187.224716 264.786102,178.097580 
	C277.668488,170.707733 289.819550,163.664047 302.080627,156.817307 
	C303.308167,156.131836 305.478668,156.072479 306.746460,156.685074 
	C320.268738,163.218719 333.384155,170.432846 344.343719,180.948456 
	C345.011322,181.588989 345.473328,182.443741 347.168671,184.739273 
	C328.651093,181.087341 312.512268,183.427750 297.681519,193.648193 
M292.733429,190.194199 
	C294.207977,189.428207 295.699432,188.692902 297.154297,187.891235 
	C306.579437,182.697739 315.721039,176.679031 327.267670,177.754745 
	C327.628601,177.788376 328.041656,177.262543 329.489594,176.275482 
	C322.409119,172.225235 315.886780,168.486053 309.355927,164.761826 
	C306.049408,162.876297 302.738495,162.918640 299.443665,164.813599 
	C293.113281,168.454376 286.542419,171.739395 280.509338,175.819687 
	C272.070496,181.527039 273.187592,180.027802 278.197754,187.705872 
	C283.556946,195.918884 283.629700,195.871414 292.733429,190.194199 
z"/>
<path fill="#503011" opacity="1.000000" stroke="none" 
	d="
M223.868286,181.055237 
	C224.619858,182.051788 225.520828,182.967194 225.392456,183.703033 
	C223.917252,192.159683 222.285767,200.589050 220.595245,209.559723 
	C212.235504,206.023514 204.682083,203.159515 197.428818,199.671371 
	C189.434021,195.826630 181.950089,197.847839 174.371933,200.603485 
	C172.843048,201.159424 171.347458,201.806900 168.929062,202.775726 
	C169.361069,200.863495 169.315308,199.506973 169.928421,198.591919 
	C176.470047,188.828384 183.056259,179.093231 189.764450,169.443588 
	C192.254608,165.861542 195.647980,167.803757 198.330124,168.991669 
	C206.823868,172.753448 215.149155,176.895615 223.868286,181.055237 
M192.133163,175.503540 
	C187.813690,180.926895 183.494217,186.350266 179.174744,191.773621 
	C179.509232,192.251587 179.843719,192.729553 180.178223,193.207504 
	C187.354797,189.540131 193.560410,192.828934 199.841064,195.368164 
	C204.315582,197.177185 208.758667,199.072845 213.153122,201.067856 
	C215.998154,202.359467 217.534378,201.805145 217.982269,198.537643 
	C218.388214,195.576126 218.906250,192.611618 219.652649,189.720108 
	C220.455841,186.608597 219.576401,184.584793 216.609299,183.313339 
	C210.340332,180.626923 204.153748,177.740829 197.826141,175.204132 
	C196.327423,174.603256 194.405273,175.058640 192.133163,175.503540 
z"/>
<path fill="#4E2C19" opacity="1.000000" stroke="none" 
	d="
M450.904541,252.382568 
	C449.944580,251.917145 448.670441,251.205780 448.115082,250.125046 
	C441.463562,237.181213 431.388916,234.310867 419.459045,242.575439 
	C415.059418,245.623367 411.430115,249.783264 407.449493,253.435898 
	C420.311737,267.455383 421.326355,280.961761 410.733765,291.416870 
	C401.288666,295.130249 397.752869,295.376038 391.865509,292.226379 
	C401.946838,291.099945 409.843323,288.100616 411.252136,277.616638 
	C412.539581,268.035797 407.779297,261.390564 400.248383,256.500916 
	C403.580688,244.984512 417.583038,233.100449 428.988892,231.863220 
	C441.224182,230.535995 451.136963,239.620132 450.904541,252.382568 
z"/>
<path fill="#563515" opacity="1.000000" stroke="none" 
	d="
M272.067261,196.895370 
	C274.128204,199.717102 275.987762,202.242416 278.055603,205.050629 
	C276.809906,206.007950 275.685181,206.872299 274.575806,207.724854 
	C273.964905,207.385513 273.373230,207.257401 273.138855,206.896957 
	C268.624298,199.954132 264.036407,193.052948 259.792053,185.947006 
	C259.139648,184.854752 260.108337,182.794235 260.327332,181.181519 
	C260.823883,181.222107 261.320465,181.262695 261.817047,181.303284 
	C265.166626,186.401840 268.516235,191.500397 272.067261,196.895370 
z"/>
<path fill="#FEF6EE" opacity="1.000000" stroke="none" 
	d="
M226.986526,314.931335 
	C222.786118,315.185791 219.818924,313.635956 219.135223,309.197235 
	C218.611313,305.795837 222.366333,300.097412 225.846436,299.883392 
	C227.436218,299.785614 230.286743,301.770355 230.595963,303.228333 
	C231.180115,305.982544 230.340088,309.038818 229.714417,312.475525 
	C228.553452,313.631470 227.769989,314.281403 226.986526,314.931335 
z"/>
<path fill="#593818" opacity="1.000000" stroke="none" 
	d="
M227.517944,211.122284 
	C224.017090,212.467728 223.072281,211.911575 223.724640,208.880356 
	C225.490448,200.675583 227.459274,192.514511 230.650803,183.957260 
	C231.066650,185.765549 232.072357,187.670059 231.795807,189.365402 
	C230.625443,196.539734 229.073776,203.651886 227.517944,211.122284 
z"/>
<path fill="#643B23" opacity="1.000000" stroke="none" 
	d="
M227.150772,315.243896 
	C227.769989,314.281403 228.553452,313.631470 229.624298,312.860931 
	C232.207016,314.046143 234.502350,315.351959 237.522415,317.070068 
	C232.800186,319.508759 229.716019,319.209625 227.150772,315.243896 
z"/>
<path fill="#A487AE" opacity="1.000000" stroke="none" 
	d="
M263.320801,84.336792 
	C273.707031,82.053230 284.090485,79.756844 294.481812,77.496742 
	C296.592590,77.037659 299.004181,75.915634 300.794647,76.522507 
	C303.305969,77.373726 306.448212,79.157173 307.244843,81.309967 
	C307.792969,82.791237 305.270203,86.218155 303.296722,87.598274 
	C301.274902,89.012215 298.249329,88.987968 295.664886,89.600815 
	C283.849487,92.402626 272.060669,95.323235 260.211487,97.973915 
	C250.713379,100.098663 248.291962,98.486992 245.997040,88.892197 
	C244.597260,89.277321 243.142181,89.499878 241.834473,90.064056 
	C221.534943,98.822006 201.254013,107.623070 180.971664,116.420792 
	C180.209396,116.751419 179.506317,117.239136 178.724396,117.500137 
	C175.393082,118.612160 172.269608,118.386292 170.569397,114.917389 
	C168.903305,111.518112 170.213669,108.537529 173.391434,106.888779 
	C181.951996,102.447227 190.455261,97.807137 199.333084,94.084984 
	C214.207947,87.848495 229.340530,82.223366 244.403244,76.441498 
	C247.027634,75.434120 249.801254,74.652679 252.576431,74.233788 
	C259.031647,73.259422 262.498535,76.373322 262.674683,83.552322 
	C262.820892,84.145340 263.070862,84.241066 263.320801,84.336792 
z"/>
<path fill="#A185AB" opacity="1.000000" stroke="none" 
	d="
M314.274292,85.831848 
	C311.161255,81.438789 311.376862,78.177544 314.714325,76.237793 
	C318.097992,74.271172 321.177643,75.255325 322.683929,78.518730 
	C323.471375,80.224754 323.222778,83.895882 322.078888,84.673126 
	C320.154480,85.980667 317.143341,85.688759 314.274292,85.831848 
z"/>
<path fill="#48404F" opacity="1.000000" stroke="none" 
	d="
M127.084915,144.096313 
	C126.965675,144.120132 126.784958,144.080032 126.750626,143.973907 
	C126.897018,143.907913 127.023438,144.032379 127.084915,144.096313 
z"/>
<path fill="#FC888C" opacity="1.000000" stroke="none" 
	d="
M285.757019,325.082001 
	C292.780396,325.255341 293.314911,325.383423 292.824951,331.877350 
	C292.305328,338.764709 291.623779,345.828064 289.572937,352.362640 
	C287.168304,360.024536 281.698975,365.579712 273.080261,366.369690 
	C264.035675,367.198730 257.697052,362.019379 252.126755,355.795624 
	C251.372086,354.952454 251.429947,352.992737 251.708832,351.676575 
	C253.599579,342.753387 258.427917,335.552795 264.957764,329.316498 
	C270.908356,323.633392 278.261719,325.270355 285.757019,325.082001 
z"/>
<path fill="#802A2C" opacity="1.000000" stroke="none" 
	d="
M258.992249,328.906067 
	C254.961884,335.443604 250.940765,341.684906 246.514618,348.554810 
	C244.648148,345.271118 242.558258,341.834381 240.775253,338.245209 
	C240.438065,337.566467 241.051727,335.640900 241.681610,335.377167 
	C247.397354,332.983978 253.214218,330.832184 258.992249,328.906067 
z"/>
<path fill="#493F4E" opacity="1.000000" stroke="none" 
	d="
M292.422211,190.390182 
	C283.629700,195.871414 283.556946,195.918884 278.197754,187.705872 
	C273.187592,180.027802 272.070496,181.527039 280.509338,175.819687 
	C286.542419,171.739395 293.113281,168.454376 299.443665,164.813599 
	C302.738495,162.918640 306.049408,162.876297 309.355927,164.761826 
	C315.886780,168.486053 322.409119,172.225235 329.489594,176.275482 
	C328.041656,177.262543 327.628601,177.788376 327.267670,177.754745 
	C315.721039,176.679031 306.579437,182.697739 297.154297,187.891235 
	C295.699432,188.692902 294.207977,189.428207 292.422211,190.390182 
z"/>
<path fill="#493F4E" opacity="1.000000" stroke="none" 
	d="
M192.405533,175.265839 
	C194.405273,175.058640 196.327423,174.603256 197.826141,175.204132 
	C204.153748,177.740829 210.340332,180.626923 216.609299,183.313339 
	C219.576401,184.584793 220.455841,186.608597 219.652649,189.720108 
	C218.906250,192.611618 218.388214,195.576126 217.982269,198.537643 
	C217.534378,201.805145 215.998154,202.359467 213.153122,201.067856 
	C208.758667,199.072845 204.315582,197.177185 199.841064,195.368164 
	C193.560410,192.828934 187.354797,189.540131 180.178223,193.207504 
	C179.843719,192.729553 179.509232,192.251587 179.174744,191.773621 
	C183.494217,186.350266 187.813690,180.926895 192.405533,175.265839 
z"/>
<path fill="#48404F" opacity="1.000000" stroke="none" 
	d="
M263.195312,84.210129 
	C263.070862,84.241066 262.820892,84.145340 262.693024,83.941772 
	C262.815094,83.833931 263.069824,84.083466 263.195312,84.210129 
z"/>
</svg>