<svg width="36" height="36" xmlns="http://www.w3.org/2000/svg" viewBox="0 0 512 512"><g data-name="fill outline"><path fill="#13bcdc" d="M314,327.191,373.676,291.8a71.149,71.149,0,0,0,30.445-85.62c-27-74.062-98.276-126.81-181.771-126.173A191.515,191.515,0,0,0,32,272c0,106.038,85.893,192,191.846,192a190.848,190.848,0,0,0,114.517-37.958c15.464-11.535,13.777-35.259-3.032-44.722l-20.854-11.739A24.486,24.486,0,0,1,314,327.191Z"/><ellipse cx="235.575" cy="156.8" fill="#fdce0b" rx="30.695" ry="30.72"/><ellipse cx="128.141" cy="210.56" fill="#de3a00" rx="30.695" ry="30.72"/><ellipse cx="120.467" cy="325.76" fill="#fc7700" rx="30.695" ry="30.72"/><ellipse cx="197.205" cy="394.88" fill="#23c04e" rx="30.695" ry="30.72"/><path fill="#018933" d="M443.364,416h29.865q4.168-27.382,5.894-54.765c.593-9.367.915-18.735.873-28.1s-.445-18.735-1.081-28.1c-1.332-18.735-3.13-37.47-3.958-56.2l-1.344-28.1-1.467-28.1-1.656-28.1-1.78-28.1C466.156,98.941,463.673,61.471,460.379,24h-4.165c-3.294,37.471-5.777,74.941-8.331,112.412l-1.78,28.1-1.656,28.1-1.468,28.1-1.344,28.1c-.827,18.735-2.626,37.47-3.957,56.2-.637,9.368-1.048,18.736-1.082,28.1s.281,18.736.874,28.1Q439.229,388.618,443.364,416Z"/><path fill="#de3a00" d="M477.443,437c0,32.247-43,43-43,43V437c0-10.75,9.625-21.5,21.5-21.5A21.5,21.5,0,0,1,477.443,437Z"/><path d="M223.813,72c-.5,0-1.02,0-1.524.006A199.515,199.515,0,0,0,24,272c0,110.28,89.651,200,199.846,200a198.059,198.059,0,0,0,119.3-39.546,34.773,34.773,0,0,0-3.891-58.105L318.4,362.61a16.486,16.486,0,0,1-.321-28.538h0l59.677-35.392a79.207,79.207,0,0,0,33.88-95.242A200.314,200.314,0,0,0,223.813,72ZM369.6,284.918l-59.677,35.393h0a32.486,32.486,0,0,0,.634,56.242l20.854,11.739a18.82,18.82,0,0,1,9.569,15.253,18.267,18.267,0,0,1-7.4,16.085A182.182,182.182,0,0,1,223.846,456C122.474,456,40,373.458,40,272,40,171.313,121.829,88.772,222.411,88.006c.469,0,.934-.006,1.4-.006A184.291,184.291,0,0,1,396.6,208.919,63.2,63.2,0,0,1,369.6,284.918Z"/><path d="M235.575 118.08A38.72 38.72 0 10274.27 156.8 38.751 38.751 0 00235.575 118.08zm0 61.44A22.72 22.72 0 11258.27 156.8 22.735 22.735 0 01235.575 179.52zM128.141 249.28a38.72 38.72 0 10-38.7-38.72A38.751 38.751 0 00128.141 249.28zm0-61.44a22.72 22.72 0 11-22.7 22.72A22.733 22.733 0 01128.141 187.84zM120.467 287.04a38.72 38.72 0 1038.7 38.72A38.751 38.751 0 00120.467 287.04zm0 61.44a22.72 22.72 0 1122.7-22.72A22.734 22.734 0 01120.467 348.48zM197.206 356.16a38.72 38.72 0 1038.7 38.72A38.751 38.751 0 00197.206 356.16zm0 61.44a22.72 22.72 0 1122.7-22.72A22.734 22.734 0 01197.206 417.6zM487.107 361.74c.639-10.1.93-19.469.89-28.636-.032-8.83-.392-18.19-1.1-28.642-.436-6.12-.927-12.326-1.4-18.328-.978-12.367-1.991-25.155-2.545-37.693L481.6 220.3l-1.471-28.158-1.658-28.137-1.783-28.141-.614-9.024c-2.307-33.924-4.692-69-7.729-103.544l-.641-7.3H448.886l-.641 7.3c-3.034 34.5-5.417 69.547-7.722 103.434l-.624 9.172-1.782 28.138L436.458 192.2l-1.469 28.139-1.346 28.131c-.553 12.509-1.565 25.3-2.543 37.664-.475 6-.967 12.208-1.4 18.352-.709 10.428-1.069 19.788-1.1 28.612-.04 9.168.251 18.537.891 28.65 1.18 18.369 3.147 36.729 5.841 54.59A29.444 29.444 0 00426.447 437v53.242l9.94-2.485c2-.5 49.056-12.7 49.056-50.757a29.317 29.317 0 00-4.855-16.186l.55-3.614C483.9 399.067 485.907 380.41 487.107 361.74zM450.277 408c-2.183-15.527-3.8-31.4-4.823-47.27-.616-9.742-.9-18.757-.858-27.569.03-8.482.379-17.508 1.062-27.564.43-6.057.919-12.231 1.392-18.2.989-12.5 2.013-25.433 2.576-38.191l1.343-28.067 1.464-28.05 1.654-28.067 1.778-28.065.622-9.136q.892-13.119 1.809-26.438.927 13.359 1.818 26.548l.612 8.988 1.777 28.067 1.654 28.049 1.466 28.069 1.342 28.073c.565 12.787 1.589 25.717 2.578 38.22.473 5.97.961 12.144 1.39 18.176.685 10.081 1.033 19.107 1.064 27.6.039 8.81-.242 17.825-.857 27.555C470.119 376.6 468.5 392.471 466.315 408h-5.021a29.473 29.473 0 00-5.349-.5 27.166 27.166 0 00-5.105.5zm-7.83 60.651V437c0-5.289 4.24-11.29 10.158-13h6.912a13.512 13.512 0 019.926 13C469.443 453.932 453.388 463.855 442.447 468.651z"/><path d="M223.846,472a198.059,198.059,0,0,0,119.3-39.546,34.773,34.773,0,0,0-3.891-58.105L318.4,362.61a16.486,16.486,0,0,1-.321-28.538h0l59.677-35.392a79.207,79.207,0,0,0,33.88-95.242A200.314,200.314,0,0,0,223.813,72c-.5,0-1.02,0-1.524.006A199.515,199.515,0,0,0,24,272C24,382.281,113.651,472,223.846,472ZM222.411,88.006c.469,0,.934-.006,1.4-.006A184.291,184.291,0,0,1,396.6,208.919a63.2,63.2,0,0,1-27.009,76l-59.677,35.393h0a32.486,32.486,0,0,0,.634,56.242l20.854,11.739a18.82,18.82,0,0,1,9.569,15.253,18.267,18.267,0,0,1-7.4,16.085A182.182,182.182,0,0,1,223.846,456C122.474,456,40,373.458,40,272,40,171.313,121.829,88.772,222.411,88.006Z"/><path d="M235.575 195.52a38.72 38.72 0 10-38.7-38.72A38.752 38.752 0 00235.575 195.52zm0-61.44a22.72 22.72 0 11-22.7 22.72A22.733 22.733 0 01235.575 134.08zM128.141 249.28a38.72 38.72 0 10-38.7-38.72A38.751 38.751 0 00128.141 249.28zm0-61.44a22.72 22.72 0 11-22.7 22.72A22.733 22.733 0 01128.141 187.84zM159.163 325.76a38.7 38.7 0 10-38.7 38.72A38.751 38.751 0 00159.163 325.76zm-61.392 0a22.7 22.7 0 1122.7 22.72A22.734 22.734 0 0197.771 325.76zM197.206 433.6a38.72 38.72 0 10-38.7-38.72A38.752 38.752 0 00197.206 433.6zm0-61.44a22.72 22.72 0 11-22.7 22.72A22.734 22.734 0 01197.206 372.16zM487.107 361.74c.639-10.1.93-19.469.89-28.636-.032-8.83-.392-18.19-1.1-28.642-.436-6.12-.927-12.326-1.4-18.328-.978-12.367-1.991-25.155-2.545-37.693L481.6 220.3l-1.471-28.158-1.658-28.137-1.783-28.141-.614-9.024c-2.307-33.924-4.692-69-7.729-103.544l-.641-7.3H448.886l-.641 7.3c-3.034 34.5-5.417 69.547-7.722 103.434l-.624 9.172-1.782 28.138L436.458 192.2l-1.469 28.139-1.346 28.131c-.553 12.509-1.565 25.3-2.543 37.664-.475 6-.967 12.208-1.4 18.352-.709 10.428-1.069 19.788-1.1 28.612-.04 9.168.251 18.537.891 28.65 1.18 18.369 3.147 36.729 5.841 54.59A29.444 29.444 0 00426.447 437v53.242l9.94-2.485c2-.5 49.056-12.7 49.056-50.757a29.317 29.317 0 00-4.855-16.186l.55-3.614C483.9 399.067 485.907 380.41 487.107 361.74zm-44.66 106.911V437c0-5.289 4.24-11.29 10.158-13h6.912a13.512 13.512 0 019.926 13C469.443 453.932 453.388 463.855 442.447 468.651zM471.14 360.723C470.119 376.6 468.5 392.471 466.315 408h-5.021a29.473 29.473 0 00-5.349-.5 27.166 27.166 0 00-5.105.5h-.563c-2.183-15.527-3.8-31.4-4.823-47.27-.616-9.742-.9-18.757-.858-27.569.03-8.482.379-17.508 1.062-27.564.43-6.057.919-12.231 1.392-18.2.989-12.5 2.013-25.433 2.576-38.191l1.343-28.067 1.464-28.05 1.654-28.067 1.778-28.065.622-9.136q.892-13.119 1.809-26.438.927 13.359 1.818 26.548l.612 8.988 1.777 28.067 1.654 28.049 1.466 28.069 1.342 28.073c.565 12.787 1.589 25.717 2.578 38.22.473 5.97.961 12.144 1.39 18.176.685 10.081 1.033 19.107 1.064 27.6C472.036 341.978 471.755 350.993 471.14 360.723z"/></g></svg>