<?xml version="1.0" encoding="UTF-8"?>
<svg width="30" height="30" version="1.1" viewBox="0 0 900 900" xmlns="http://www.w3.org/2000/svg" xmlns:xlink="http://www.w3.org/1999/xlink">
 <g>
  <path d="m558.91 455h-417.81c-26.535 0-48.125-21.59-48.125-48.125v-231.88c0-26.535 21.59-48.125 48.125-48.125h417.81c26.535 0 48.125 21.59 48.125 48.125v231.88c0 26.535-21.59 48.125-48.125 48.125zm-417.81-317.19c-20.504 0-37.188 16.684-37.188 37.188v231.88c0 20.504 16.684 37.188 37.188 37.188h417.81c20.504 0 37.188-16.684 37.188-37.188v-231.88c0-20.504-16.684-37.188-37.188-37.188z"/>
  <path d="m568.75 422.19h-437.5c-3.0195 0-5.4688-2.4492-5.4688-5.4688v-251.56c0-3.0195 2.4492-5.4688 5.4688-5.4688h437.5c3.0195 0 5.4688 2.4492 5.4688 5.4688v251.56c0 3.0195-2.4492 5.4688-5.4688 5.4688zm-432.03-10.938h426.56v-240.62h-426.56z"/>
  <path d="m514.09 247.19h-0.023438-65.625c-3.0195 0-5.4688-2.4492-5.4688-5.4688v-43.75c0-3.0195 2.4492-5.4688 5.4688-5.4688h65.625c1.8945 0 3.6562 0.98047 4.6523 2.5938s1.0859 3.625 0.23828 5.3203l-9.7148 19.43 9.5078 19.016c0.51172 0.83203 0.80469 1.8086 0.80469 2.8594 0.003907 3.0195-2.4453 5.4688-5.4648 5.4688zm-60.18-10.938h51.309l-6.9805-13.961c-0.76953-1.5391-0.76953-3.3516 0-4.8906l6.9805-13.961h-51.309z"/>
  <path d="m448.44 290.94c-3.0195 0-5.4688-2.4492-5.4688-5.4688v-43.75c0-3.0195 2.4492-5.4688 5.4688-5.4688s5.4688 2.4492 5.4688 5.4688v43.75c0 3.0195-2.4492 5.4688-5.4688 5.4688z"/>
  <path d="m295.31 378.44h-54.688c-3.0195 0-5.4688-2.4492-5.4688-5.4688s2.4492-5.4688 5.4688-5.4688h54.688c9.0469 0 16.406-7.3594 16.406-16.406s-7.3594-16.406-16.406-16.406h-98.438c-15.078 0-27.344-12.266-27.344-27.344s12.266-27.344 27.344-27.344h218.75c3.0195 0 5.4688 2.4492 5.4688 5.4688s-2.4492 5.4688-5.4688 5.4688h-218.75c-9.0469 0-16.406 7.3594-16.406 16.406s7.3594 16.406 16.406 16.406h98.438c15.078 0 27.344 12.266 27.344 27.344s-12.266 27.344-27.344 27.344z"/>
  <path d="m218.75 531.56c-15.078 0-27.344-12.266-27.344-27.344s12.266-27.344 27.344-27.344 27.344 12.266 27.344 27.344-12.266 27.344-27.344 27.344zm0-43.75c-9.0469 0-16.406 7.3594-16.406 16.406s7.3594 16.406 16.406 16.406 16.406-7.3594 16.406-16.406-7.3594-16.406-16.406-16.406z"/>
  <path d="m459.38 105c-21.109 0-38.281-17.172-38.281-38.281s17.172-38.281 38.281-38.281 38.281 17.172 38.281 38.281-17.172 38.281-38.281 38.281zm0-65.625c-15.078 0-27.344 12.266-27.344 27.344s12.266 27.344 27.344 27.344 27.344-12.266 27.344-27.344-12.266-27.344-27.344-27.344z"/>
  <path d="m196.88 225.31h-65.625c-3.0195 0-5.4688-2.4492-5.4688-5.4688s2.4492-5.4688 5.4688-5.4688h65.625c3.0195 0 5.4688 2.4492 5.4688 5.4688s-2.4492 5.4688-5.4688 5.4688z"/>
  <path d="m568.75 378.44h-54.688c-3.0195 0-5.4688-2.4492-5.4688-5.4688s2.4492-5.4688 5.4688-5.4688h54.688c3.0195 0 5.4688 2.4492 5.4688 5.4688s-2.4492 5.4688-5.4688 5.4688z"/>
  <path d="m459.38 345.62h-54.688c-3.0195 0-5.4688-2.4492-5.4688-5.4688s2.4492-5.4688 5.4688-5.4688h54.688c3.0195 0 5.4688 2.4492 5.4688 5.4688s-2.4492 5.4688-5.4688 5.4688z"/>
  <path d="m557.81 99.531c-6.0391 0-10.938-4.8984-10.938-10.938s4.8984-10.938 10.938-10.938 10.938 4.8984 10.938 10.938-4.8984 10.938-10.938 10.938z"/>
  <path d="m371.88 66.719c-6.0391 0-10.938-4.8984-10.938-10.938s4.8984-10.938 10.938-10.938 10.938 4.8984 10.938 10.938-4.8984 10.938-10.938 10.938z"/>
  <path d="m229.69 88.594c-6.0391 0-10.938-4.8984-10.938-10.938s4.8984-10.938 10.938-10.938 10.938 4.8984 10.938 10.938-4.8984 10.938-10.938 10.938z"/>
  <path d="m557.81 493.28c-6.0391 0-10.938-4.8984-10.938-10.938s4.8984-10.938 10.938-10.938 10.938 4.8984 10.938 10.938-4.8984 10.938-10.938 10.938z"/>
  <path d="m426.56 515.16c-6.0391 0-10.938-4.8984-10.938-10.938s4.8984-10.938 10.938-10.938 10.938 4.8984 10.938 10.938-4.8984 10.938-10.938 10.938z"/>
  <path d="m142.19 493.28c-6.0391 0-10.938-4.8984-10.938-10.938s4.8984-10.938 10.938-10.938 10.938 4.8984 10.938 10.938-4.8984 10.938-10.938 10.938z"/>
  <path d="m284.38 493.28c-6.0391 0-10.938-4.8984-10.938-10.938s4.8984-10.938 10.938-10.938 10.938 4.8984 10.938 10.938-4.8984 10.938-10.938 10.938z"/>
  <path d="m481.25 383.91c-6.0391 0-10.938-4.8984-10.938-10.938s4.8984-10.938 10.938-10.938 10.938 4.8984 10.938 10.938-4.8984 10.938-10.938 10.938z"/>
  <path d="m371.88 351.09c-6.0391 0-10.938-4.8984-10.938-10.938s4.8984-10.938 10.938-10.938 10.938 4.8984 10.938 10.938-4.8984 10.938-10.938 10.938z"/>
  <path d="m382.81 263.59c-6.0391 0-10.938-4.8984-10.938-10.938s4.8984-10.938 10.938-10.938 10.938 4.8984 10.938 10.938-4.8984 10.938-10.938 10.938z"/>
  <path d="m350 263.59c-6.0391 0-10.938-4.8984-10.938-10.938s4.8984-10.938 10.938-10.938 10.938 4.8984 10.938 10.938-4.8984 10.938-10.938 10.938z"/>
  <path d="m317.19 263.59c-6.0391 0-10.938-4.8984-10.938-10.938s4.8984-10.938 10.938-10.938 10.938 4.8984 10.938 10.938-4.8984 10.938-10.938 10.938z"/>
  <path d="m284.38 263.59c-6.0391 0-10.938-4.8984-10.938-10.938s4.8984-10.938 10.938-10.938 10.938 4.8984 10.938 10.938-4.8984 10.938-10.938 10.938z"/>
  <path d="m251.56 263.59c-6.0391 0-10.938-4.8984-10.938-10.938s4.8984-10.938 10.938-10.938 10.938 4.8984 10.938 10.938-4.8984 10.938-10.938 10.938z"/>
  
 </g>
</svg>
